M48
; DRILL file {KiCad (6.0.4)} date Mon May  2 18:01:09 2022
; FORMAT={-:-/ absolute / inch / decimal}
; #@! TF.CreationDate,2022-05-02T18:01:09+08:00
; #@! TF.GenerationSoftware,Kicad,Pcbnew,(6.0.4)
; #@! TF.FileFunction,Plated,1,2,PTH
FMAT,2
INCH
; #@! TA.AperFunction,Plated,PTH,ViaDrill
T1C0.0157
; #@! TA.AperFunction,Plated,PTH,ComponentDrill
T2C0.0236
; #@! TA.AperFunction,Plated,PTH,ComponentDrill
T3C0.0394
; #@! TA.AperFunction,Plated,PTH,ComponentDrill
T4C0.0590
%
G90
G05
T1
X0.6496Y-4.4754
X0.7372Y-4.1781
X0.7372Y-4.2697
X0.7835Y-3.4774
X0.7874Y-3.4331
X0.7894Y-3.2756
X0.7992Y-3.1575
X0.8307Y-3.8858
X0.92Y-5.318
X0.9429Y-3.925
X0.9508Y-4.1998
X0.9557Y-3.8573
X1.0028Y-3.7421
X1.0058Y-3.9124
X1.1083Y-3.4705
X1.123Y-4.3356
X1.1358Y-3.3573
X1.1457Y-4.2549
X1.1506Y-3.8976
X1.1506Y-3.9459
X1.1506Y-3.9902
X1.1762Y-3.7156
X1.1959Y-3.9449
X1.1969Y-3.8976
X1.1969Y-3.9902
X1.1977Y-3.4878
X1.1998Y-3.3848
X1.2402Y-4.2421
X1.2421Y-3.2461
X1.2431Y-3.8976
X1.2431Y-3.9459
X1.2431Y-3.9902
X1.2462Y-4.1393
X1.3196Y-3.7244
X1.3454Y-3.2446
X1.35Y-3.535
X1.4082Y-3.3818
X1.4222Y-3.8583
X1.431Y-3.519
X1.4579Y-3.3701
X1.4646Y-4.2402
X1.4862Y-3.6585
X1.4862Y-3.877
X1.4911Y-3.5817
X1.5256Y-3.8832
X1.5472Y-4.1132
X1.5502Y-3.936
X1.5502Y-3.9951
X1.5502Y-4.0502
X1.5693Y-3.3232
X1.582Y-3.548
X1.5837Y-4.0827
X1.5846Y-3.9055
X1.5846Y-3.9646
X1.5876Y-4.6663
X1.6309Y-4.1545
X1.7037Y-5.4921
X1.7372Y-3.1299
X1.8199Y-4.5837
X2.2057Y-3.9154
X2.2638Y-3.0846
X2.284Y-3.265
X2.317Y-3.533
X2.3868Y-5.3081
T3
X0.8Y-4.9181
X0.8Y-5.0181
X0.8Y-5.1181
X0.8Y-5.2181
X0.8Y-5.3181
X1.5Y-4.9181
X1.5Y-5.0181
X1.5Y-5.1181
X1.5Y-5.2181
X1.5Y-5.3181
T4
X1.1433Y-6.0063
X1.1933Y-5.9063
X1.3933Y-5.9063
X1.4433Y-6.0063
X1.8933Y-3.6382
X1.8933Y-4.3882
X1.8933Y-5.1382
X1.8933Y-5.8882
X1.9433Y-3.5382
X1.9433Y-4.2882
X1.9433Y-5.0382
X1.9433Y-5.7882
X2.1433Y-3.5382
X2.1433Y-4.2882
X2.1433Y-5.0382
X2.1433Y-5.7882
X2.1933Y-3.6382
X2.1933Y-4.3882
X2.1933Y-5.1382
X2.1933Y-5.8882
X2.6433Y-3.402
X2.6433Y-4.152
X2.6433Y-4.902
X2.6433Y-5.7701
X2.6933Y-3.302
X2.6933Y-4.052
X2.6933Y-4.802
X2.6933Y-5.6701
X2.8933Y-3.302
X2.8933Y-4.052
X2.8933Y-4.802
X2.8933Y-5.6701
X2.9433Y-3.402
X2.9433Y-4.152
X2.9433Y-4.902
X2.9433Y-5.7701
X3.3933Y-3.087
X3.3933Y-3.837
X3.3933Y-4.587
X3.4433Y-2.987
X3.4433Y-3.737
X3.4433Y-4.487
X3.6433Y-2.987
X3.6433Y-3.737
X3.6433Y-4.487
X3.6933Y-3.087
X3.6933Y-3.837
X3.6933Y-4.587
X4.1433Y-3.3232
X4.1433Y-4.0732
X4.1433Y-4.8232
X4.1933Y-3.2232
X4.1933Y-3.9732
X4.1933Y-4.7232
X4.3933Y-3.2232
X4.3933Y-3.9732
X4.3933Y-4.7232
X4.4433Y-3.3232
X4.4433Y-4.0732
X4.4433Y-4.8232
X4.8933Y-3.837
X4.8933Y-4.587
X4.8933Y-5.337
X4.9433Y-3.737
X4.9433Y-4.487
X4.9433Y-5.237
X5.1433Y-3.737
X5.1433Y-4.487
X5.1433Y-5.237
X5.1933Y-3.837
X5.1933Y-4.587
X5.1933Y-5.337
X5.6433Y-3.837
X5.6433Y-4.587
X5.6433Y-5.337
X5.6933Y-3.737
X5.6933Y-4.487
X5.6933Y-5.237
X5.8933Y-3.737
X5.8933Y-4.487
X5.8933Y-5.237
X5.9433Y-3.837
X5.9433Y-4.587
X5.9433Y-5.337
T2
G00X1.1262Y-3.1197
M15
G01X1.1262Y-3.0961
M16
G05
G00X1.1262Y-3.2941
M15
G01X1.1262Y-3.2508
M16
G05
G00X1.4663Y-3.1197
M15
G01X1.4663Y-3.0961
M16
G05
G00X1.4663Y-3.2941
M15
G01X1.4663Y-3.2508
M16
G05
T0
M30
