%TF.GenerationSoftware,KiCad,Pcbnew,(6.0.4)*%
%TF.CreationDate,2022-05-02T18:01:09+08:00*%
%TF.ProjectId,RP2040 Board V1.0,52503230-3430-4204-926f-617264205631,rev?*%
%TF.SameCoordinates,Original*%
%TF.FileFunction,Legend,Top*%
%TF.FilePolarity,Positive*%
%FSLAX46Y46*%
G04 Gerber Fmt 4.6, Leading zero omitted, Abs format (unit mm)*
G04 Created by KiCad (PCBNEW (6.0.4)) date 2022-05-02 18:01:09*
%MOMM*%
%LPD*%
G01*
G04 APERTURE LIST*
G04 Aperture macros list*
%AMRoundRect*
0 Rectangle with rounded corners*
0 $1 Rounding radius*
0 $2 $3 $4 $5 $6 $7 $8 $9 X,Y pos of 4 corners*
0 Add a 4 corners polygon primitive as box body*
4,1,4,$2,$3,$4,$5,$6,$7,$8,$9,$2,$3,0*
0 Add four circle primitives for the rounded corners*
1,1,$1+$1,$2,$3*
1,1,$1+$1,$4,$5*
1,1,$1+$1,$6,$7*
1,1,$1+$1,$8,$9*
0 Add four rect primitives between the rounded corners*
20,1,$1+$1,$2,$3,$4,$5,0*
20,1,$1+$1,$4,$5,$6,$7,0*
20,1,$1+$1,$6,$7,$8,$9,0*
20,1,$1+$1,$8,$9,$2,$3,0*%
G04 Aperture macros list end*
%ADD10C,0.150000*%
%ADD11C,0.300000*%
%ADD12C,0.120000*%
%ADD13C,0.100000*%
%ADD14R,1.000000X1.000000*%
%ADD15RoundRect,0.225000X-0.225000X-0.250000X0.225000X-0.250000X0.225000X0.250000X-0.225000X0.250000X0*%
%ADD16R,0.812800X0.177800*%
%ADD17R,0.177800X0.812800*%
%ADD18R,3.200400X3.200400*%
%ADD19C,1.701800*%
%ADD20C,3.987800*%
%ADD21C,2.286000*%
%ADD22RoundRect,0.200000X-0.275000X0.200000X-0.275000X-0.200000X0.275000X-0.200000X0.275000X0.200000X0*%
%ADD23RoundRect,0.237500X0.237500X-0.250000X0.237500X0.250000X-0.237500X0.250000X-0.237500X-0.250000X0*%
%ADD24RoundRect,0.200000X-0.200000X-0.275000X0.200000X-0.275000X0.200000X0.275000X-0.200000X0.275000X0*%
%ADD25RoundRect,0.237500X-0.237500X0.250000X-0.237500X-0.250000X0.237500X-0.250000X0.237500X0.250000X0*%
%ADD26C,3.200000*%
%ADD27C,2.000000*%
%ADD28RoundRect,0.237500X-0.237500X0.300000X-0.237500X-0.300000X0.237500X-0.300000X0.237500X0.300000X0*%
%ADD29RoundRect,0.218750X-0.256250X0.218750X-0.256250X-0.218750X0.256250X-0.218750X0.256250X0.218750X0*%
%ADD30R,1.050000X0.650000*%
%ADD31RoundRect,0.200000X0.275000X-0.200000X0.275000X0.200000X-0.275000X0.200000X-0.275000X-0.200000X0*%
%ADD32RoundRect,0.237500X-0.300000X-0.237500X0.300000X-0.237500X0.300000X0.237500X-0.300000X0.237500X0*%
%ADD33RoundRect,0.237500X0.237500X-0.300000X0.237500X0.300000X-0.237500X0.300000X-0.237500X-0.300000X0*%
%ADD34R,1.400000X1.200000*%
%ADD35RoundRect,0.225000X0.250000X-0.225000X0.250000X0.225000X-0.250000X0.225000X-0.250000X-0.225000X0*%
%ADD36RoundRect,0.150000X0.150000X-0.650000X0.150000X0.650000X-0.150000X0.650000X-0.150000X-0.650000X0*%
%ADD37R,2.000000X1.500000*%
%ADD38R,2.000000X3.800000*%
%ADD39C,1.500000*%
%ADD40R,2.500000X1.200000*%
%ADD41C,0.650000*%
%ADD42R,0.600000X1.450000*%
%ADD43R,0.300000X1.450000*%
%ADD44O,1.000000X1.600000*%
%ADD45O,1.000000X2.100000*%
G04 APERTURE END LIST*
D10*
X84737994Y-131632142D02*
X84684422Y-131679761D01*
X84535613Y-131727380D01*
X84440375Y-131727380D01*
X84303470Y-131679761D01*
X84220136Y-131584523D01*
X84184422Y-131489285D01*
X84160613Y-131298809D01*
X84178470Y-131155952D01*
X84249898Y-130965476D01*
X84309422Y-130870238D01*
X84416565Y-130775000D01*
X84565375Y-130727380D01*
X84660613Y-130727380D01*
X84797517Y-130775000D01*
X84839184Y-130822619D01*
X85142755Y-131060714D02*
X85297517Y-131727380D01*
X85618946Y-131060714D02*
X85297517Y-131727380D01*
X85172517Y-131965476D01*
X85118946Y-132013095D01*
X85017755Y-132060714D01*
X85916565Y-131727380D02*
X86041565Y-130727380D01*
X85993946Y-131108333D02*
X86095136Y-131060714D01*
X86285613Y-131060714D01*
X86374898Y-131108333D01*
X86416565Y-131155952D01*
X86452279Y-131251190D01*
X86416565Y-131536904D01*
X86357041Y-131632142D01*
X86303470Y-131679761D01*
X86202279Y-131727380D01*
X86011803Y-131727380D01*
X85922517Y-131679761D01*
X87208232Y-131679761D02*
X87107041Y-131727380D01*
X86916565Y-131727380D01*
X86827279Y-131679761D01*
X86791565Y-131584523D01*
X86839184Y-131203571D01*
X86898708Y-131108333D01*
X86999898Y-131060714D01*
X87190375Y-131060714D01*
X87279660Y-131108333D01*
X87315375Y-131203571D01*
X87303470Y-131298809D01*
X86815375Y-131394047D01*
X87678470Y-131727380D02*
X87761803Y-131060714D01*
X87737994Y-131251190D02*
X87797517Y-131155952D01*
X87851089Y-131108333D01*
X87952279Y-131060714D01*
X88047517Y-131060714D01*
X88255851Y-131679761D02*
X88392755Y-131727380D01*
X88630851Y-131727380D01*
X88732041Y-131679761D01*
X88785613Y-131632142D01*
X88845136Y-131536904D01*
X88857041Y-131441666D01*
X88821327Y-131346428D01*
X88779660Y-131298809D01*
X88690375Y-131251190D01*
X88505851Y-131203571D01*
X88416565Y-131155952D01*
X88374898Y-131108333D01*
X88339184Y-131013095D01*
X88351089Y-130917857D01*
X88410613Y-130822619D01*
X88464184Y-130775000D01*
X88565375Y-130727380D01*
X88803470Y-130727380D01*
X88940375Y-130775000D01*
X89392755Y-131727380D02*
X89303470Y-131679761D01*
X89267755Y-131584523D01*
X89374898Y-130727380D01*
X89773708Y-131727380D02*
X89857041Y-131060714D01*
X89898708Y-130727380D02*
X89845136Y-130775000D01*
X89886803Y-130822619D01*
X89940375Y-130775000D01*
X89898708Y-130727380D01*
X89886803Y-130822619D01*
X90684422Y-131679761D02*
X90583232Y-131727380D01*
X90392755Y-131727380D01*
X90303470Y-131679761D01*
X90261803Y-131632142D01*
X90226089Y-131536904D01*
X90261803Y-131251190D01*
X90321327Y-131155952D01*
X90374898Y-131108333D01*
X90476089Y-131060714D01*
X90666565Y-131060714D01*
X90755851Y-131108333D01*
X91493946Y-131679761D02*
X91392755Y-131727380D01*
X91202279Y-131727380D01*
X91112994Y-131679761D01*
X91077279Y-131584523D01*
X91124898Y-131203571D01*
X91184422Y-131108333D01*
X91285613Y-131060714D01*
X91476089Y-131060714D01*
X91565375Y-131108333D01*
X91601089Y-131203571D01*
X91589184Y-131298809D01*
X91101089Y-131394047D01*
X92708232Y-130727380D02*
X92916565Y-131727380D01*
X93374898Y-130727380D01*
X94107041Y-131727380D02*
X93535613Y-131727380D01*
X93821327Y-131727380D02*
X93946327Y-130727380D01*
X93833232Y-130870238D01*
X93726089Y-130965476D01*
X93624898Y-131013095D01*
X94547517Y-131632142D02*
X94589184Y-131679761D01*
X94535613Y-131727380D01*
X94493946Y-131679761D01*
X94547517Y-131632142D01*
X94535613Y-131727380D01*
X95327279Y-130727380D02*
X95422517Y-130727380D01*
X95511803Y-130775000D01*
X95553470Y-130822619D01*
X95589184Y-130917857D01*
X95612994Y-131108333D01*
X95583232Y-131346428D01*
X95511803Y-131536904D01*
X95452279Y-131632142D01*
X95398708Y-131679761D01*
X95297517Y-131727380D01*
X95202279Y-131727380D01*
X95112994Y-131679761D01*
X95071327Y-131632142D01*
X95035613Y-131536904D01*
X95011803Y-131346428D01*
X95041565Y-131108333D01*
X95112994Y-130917857D01*
X95172517Y-130822619D01*
X95226089Y-130775000D01*
X95327279Y-130727380D01*
X81702279Y-133337380D02*
X81827279Y-132337380D01*
X82065374Y-132337380D01*
X82202279Y-132385000D01*
X82285613Y-132480238D01*
X82321327Y-132575476D01*
X82345136Y-132765952D01*
X82327279Y-132908809D01*
X82255851Y-133099285D01*
X82196327Y-133194523D01*
X82089184Y-133289761D01*
X81940374Y-133337380D01*
X81702279Y-133337380D01*
X83089184Y-133289761D02*
X82987994Y-133337380D01*
X82797517Y-133337380D01*
X82708232Y-133289761D01*
X82672517Y-133194523D01*
X82720136Y-132813571D01*
X82779660Y-132718333D01*
X82880851Y-132670714D01*
X83071327Y-132670714D01*
X83160613Y-132718333D01*
X83196327Y-132813571D01*
X83184422Y-132908809D01*
X82696327Y-133004047D01*
X83517755Y-133289761D02*
X83607041Y-133337380D01*
X83797517Y-133337380D01*
X83898708Y-133289761D01*
X83958232Y-133194523D01*
X83964184Y-133146904D01*
X83928470Y-133051666D01*
X83839184Y-133004047D01*
X83696327Y-133004047D01*
X83607041Y-132956428D01*
X83571327Y-132861190D01*
X83577279Y-132813571D01*
X83636803Y-132718333D01*
X83737994Y-132670714D01*
X83880851Y-132670714D01*
X83970136Y-132718333D01*
X84368946Y-133337380D02*
X84452279Y-132670714D01*
X84493946Y-132337380D02*
X84440374Y-132385000D01*
X84482041Y-132432619D01*
X84535613Y-132385000D01*
X84493946Y-132337380D01*
X84482041Y-132432619D01*
X85357041Y-132670714D02*
X85255851Y-133480238D01*
X85196327Y-133575476D01*
X85142755Y-133623095D01*
X85041565Y-133670714D01*
X84898708Y-133670714D01*
X84809422Y-133623095D01*
X85279660Y-133289761D02*
X85178470Y-133337380D01*
X84987994Y-133337380D01*
X84898708Y-133289761D01*
X84857041Y-133242142D01*
X84821327Y-133146904D01*
X84857041Y-132861190D01*
X84916565Y-132765952D01*
X84970136Y-132718333D01*
X85071327Y-132670714D01*
X85261803Y-132670714D01*
X85351089Y-132718333D01*
X85833232Y-132670714D02*
X85749898Y-133337380D01*
X85821327Y-132765952D02*
X85874898Y-132718333D01*
X85976089Y-132670714D01*
X86118946Y-132670714D01*
X86208232Y-132718333D01*
X86243946Y-132813571D01*
X86178470Y-133337380D01*
X87041565Y-133289761D02*
X86940374Y-133337380D01*
X86749898Y-133337380D01*
X86660613Y-133289761D01*
X86624898Y-133194523D01*
X86672517Y-132813571D01*
X86732041Y-132718333D01*
X86833232Y-132670714D01*
X87023708Y-132670714D01*
X87112994Y-132718333D01*
X87148708Y-132813571D01*
X87136803Y-132908809D01*
X86648708Y-133004047D01*
X87940374Y-133337380D02*
X88065374Y-132337380D01*
X87946327Y-133289761D02*
X87845136Y-133337380D01*
X87654660Y-133337380D01*
X87565374Y-133289761D01*
X87523708Y-133242142D01*
X87487994Y-133146904D01*
X87523708Y-132861190D01*
X87583232Y-132765952D01*
X87636803Y-132718333D01*
X87737994Y-132670714D01*
X87928470Y-132670714D01*
X88017755Y-132718333D01*
X89178470Y-133337380D02*
X89303470Y-132337380D01*
X89255851Y-132718333D02*
X89357041Y-132670714D01*
X89547517Y-132670714D01*
X89636803Y-132718333D01*
X89678470Y-132765952D01*
X89714184Y-132861190D01*
X89678470Y-133146904D01*
X89618946Y-133242142D01*
X89565375Y-133289761D01*
X89464184Y-133337380D01*
X89273708Y-133337380D01*
X89184422Y-133289761D01*
X90071327Y-132670714D02*
X90226089Y-133337380D01*
X90547517Y-132670714D02*
X90226089Y-133337380D01*
X90101089Y-133575476D01*
X90047517Y-133623095D01*
X89946327Y-133670714D01*
X91607041Y-133337380D02*
X91732041Y-132337380D01*
X91976089Y-133051666D01*
X92398708Y-132337380D01*
X92273708Y-133337380D01*
X93321327Y-133337380D02*
X93047517Y-132861190D01*
X92749898Y-133337380D02*
X92874898Y-132337380D01*
X93255851Y-132337380D01*
X93345136Y-132385000D01*
X93386803Y-132432619D01*
X93422517Y-132527857D01*
X93404660Y-132670714D01*
X93345136Y-132765952D01*
X93291565Y-132813571D01*
X93190375Y-132861190D01*
X92809422Y-132861190D01*
X94136803Y-133289761D02*
X94035613Y-133337380D01*
X93845136Y-133337380D01*
X93755851Y-133289761D01*
X93720136Y-133194523D01*
X93767755Y-132813571D01*
X93827279Y-132718333D01*
X93928470Y-132670714D01*
X94118946Y-132670714D01*
X94208232Y-132718333D01*
X94243946Y-132813571D01*
X94232041Y-132908809D01*
X93743946Y-133004047D01*
X95035613Y-133337380D02*
X95101089Y-132813571D01*
X95065375Y-132718333D01*
X94976089Y-132670714D01*
X94785613Y-132670714D01*
X94684422Y-132718333D01*
X95041565Y-133289761D02*
X94940374Y-133337380D01*
X94702279Y-133337380D01*
X94612994Y-133289761D01*
X94577279Y-133194523D01*
X94589184Y-133099285D01*
X94648708Y-133004047D01*
X94749898Y-132956428D01*
X94987994Y-132956428D01*
X95089184Y-132908809D01*
X95499898Y-132670714D02*
X95654660Y-133337380D01*
X95976089Y-132670714D01*
X96416565Y-133337380D02*
X96327279Y-133289761D01*
X96291565Y-133194523D01*
X96398708Y-132337380D01*
X97184422Y-133289761D02*
X97083232Y-133337380D01*
X96892755Y-133337380D01*
X96803470Y-133289761D01*
X96767755Y-133194523D01*
X96815374Y-132813571D01*
X96874898Y-132718333D01*
X96976089Y-132670714D01*
X97166565Y-132670714D01*
X97255851Y-132718333D01*
X97291565Y-132813571D01*
X97279660Y-132908809D01*
X96791565Y-133004047D01*
X97642755Y-132670714D02*
X97797517Y-133337380D01*
X98118946Y-132670714D02*
X97797517Y-133337380D01*
X97672517Y-133575476D01*
X97618946Y-133623095D01*
X97517755Y-133670714D01*
D11*
X16711028Y-115412057D02*
X16925314Y-115483485D01*
X16996742Y-115554914D01*
X17068171Y-115697771D01*
X17068171Y-115912057D01*
X16996742Y-116054914D01*
X16925314Y-116126342D01*
X16782457Y-116197771D01*
X16211028Y-116197771D01*
X16211028Y-114697771D01*
X16711028Y-114697771D01*
X16853885Y-114769200D01*
X16925314Y-114840628D01*
X16996742Y-114983485D01*
X16996742Y-115126342D01*
X16925314Y-115269200D01*
X16853885Y-115340628D01*
X16711028Y-115412057D01*
X16211028Y-115412057D01*
X17925314Y-116197771D02*
X17782457Y-116126342D01*
X17711028Y-116054914D01*
X17639600Y-115912057D01*
X17639600Y-115483485D01*
X17711028Y-115340628D01*
X17782457Y-115269200D01*
X17925314Y-115197771D01*
X18139600Y-115197771D01*
X18282457Y-115269200D01*
X18353885Y-115340628D01*
X18425314Y-115483485D01*
X18425314Y-115912057D01*
X18353885Y-116054914D01*
X18282457Y-116126342D01*
X18139600Y-116197771D01*
X17925314Y-116197771D01*
X19282457Y-116197771D02*
X19139600Y-116126342D01*
X19068171Y-116054914D01*
X18996742Y-115912057D01*
X18996742Y-115483485D01*
X19068171Y-115340628D01*
X19139600Y-115269200D01*
X19282457Y-115197771D01*
X19496742Y-115197771D01*
X19639600Y-115269200D01*
X19711028Y-115340628D01*
X19782457Y-115483485D01*
X19782457Y-115912057D01*
X19711028Y-116054914D01*
X19639600Y-116126342D01*
X19496742Y-116197771D01*
X19282457Y-116197771D01*
X20211028Y-115197771D02*
X20782457Y-115197771D01*
X20425314Y-114697771D02*
X20425314Y-115983485D01*
X20496742Y-116126342D01*
X20639600Y-116197771D01*
X20782457Y-116197771D01*
X30984142Y-119931571D02*
X30484142Y-119217285D01*
X30127000Y-119931571D02*
X30127000Y-118431571D01*
X30698428Y-118431571D01*
X30841285Y-118503000D01*
X30912714Y-118574428D01*
X30984142Y-118717285D01*
X30984142Y-118931571D01*
X30912714Y-119074428D01*
X30841285Y-119145857D01*
X30698428Y-119217285D01*
X30127000Y-119217285D01*
X32269857Y-118931571D02*
X32269857Y-119931571D01*
X31627000Y-118931571D02*
X31627000Y-119717285D01*
X31698428Y-119860142D01*
X31841285Y-119931571D01*
X32055571Y-119931571D01*
X32198428Y-119860142D01*
X32269857Y-119788714D01*
X32984142Y-118931571D02*
X32984142Y-119931571D01*
X32984142Y-119074428D02*
X33055571Y-119003000D01*
X33198428Y-118931571D01*
X33412714Y-118931571D01*
X33555571Y-119003000D01*
X33627000Y-119145857D01*
X33627000Y-119931571D01*
D10*
%TO.C,D2*%
X28836904Y-145102380D02*
X28836904Y-144102380D01*
X29075000Y-144102380D01*
X29217857Y-144150000D01*
X29313095Y-144245238D01*
X29360714Y-144340476D01*
X29408333Y-144530952D01*
X29408333Y-144673809D01*
X29360714Y-144864285D01*
X29313095Y-144959523D01*
X29217857Y-145054761D01*
X29075000Y-145102380D01*
X28836904Y-145102380D01*
X29789285Y-144197619D02*
X29836904Y-144150000D01*
X29932142Y-144102380D01*
X30170238Y-144102380D01*
X30265476Y-144150000D01*
X30313095Y-144197619D01*
X30360714Y-144292857D01*
X30360714Y-144388095D01*
X30313095Y-144530952D01*
X29741666Y-145102380D01*
X30360714Y-145102380D01*
%TO.C,C3*%
X29283333Y-88832142D02*
X29235714Y-88879761D01*
X29092857Y-88927380D01*
X28997619Y-88927380D01*
X28854761Y-88879761D01*
X28759523Y-88784523D01*
X28711904Y-88689285D01*
X28664285Y-88498809D01*
X28664285Y-88355952D01*
X28711904Y-88165476D01*
X28759523Y-88070238D01*
X28854761Y-87975000D01*
X28997619Y-87927380D01*
X29092857Y-87927380D01*
X29235714Y-87975000D01*
X29283333Y-88022619D01*
X29616666Y-87927380D02*
X30235714Y-87927380D01*
X29902380Y-88308333D01*
X30045238Y-88308333D01*
X30140476Y-88355952D01*
X30188095Y-88403571D01*
X30235714Y-88498809D01*
X30235714Y-88736904D01*
X30188095Y-88832142D01*
X30140476Y-88879761D01*
X30045238Y-88927380D01*
X29759523Y-88927380D01*
X29664285Y-88879761D01*
X29616666Y-88832142D01*
%TO.C,U3*%
X29638095Y-99627380D02*
X29638095Y-100436904D01*
X29685714Y-100532142D01*
X29733333Y-100579761D01*
X29828571Y-100627380D01*
X30019047Y-100627380D01*
X30114285Y-100579761D01*
X30161904Y-100532142D01*
X30209523Y-100436904D01*
X30209523Y-99627380D01*
X30590476Y-99627380D02*
X31209523Y-99627380D01*
X30876190Y-100008333D01*
X31019047Y-100008333D01*
X31114285Y-100055952D01*
X31161904Y-100103571D01*
X31209523Y-100198809D01*
X31209523Y-100436904D01*
X31161904Y-100532142D01*
X31114285Y-100579761D01*
X31019047Y-100627380D01*
X30733333Y-100627380D01*
X30638095Y-100579761D01*
X30590476Y-100532142D01*
X27994761Y-95852380D02*
X27661428Y-95376190D01*
X27423333Y-95852380D02*
X27423333Y-94852380D01*
X27804285Y-94852380D01*
X27899523Y-94900000D01*
X27947142Y-94947619D01*
X27994761Y-95042857D01*
X27994761Y-95185714D01*
X27947142Y-95280952D01*
X27899523Y-95328571D01*
X27804285Y-95376190D01*
X27423333Y-95376190D01*
X28423333Y-95852380D02*
X28423333Y-94852380D01*
X28804285Y-94852380D01*
X28899523Y-94900000D01*
X28947142Y-94947619D01*
X28994761Y-95042857D01*
X28994761Y-95185714D01*
X28947142Y-95280952D01*
X28899523Y-95328571D01*
X28804285Y-95376190D01*
X28423333Y-95376190D01*
X29375714Y-94947619D02*
X29423333Y-94900000D01*
X29518571Y-94852380D01*
X29756666Y-94852380D01*
X29851904Y-94900000D01*
X29899523Y-94947619D01*
X29947142Y-95042857D01*
X29947142Y-95138095D01*
X29899523Y-95280952D01*
X29328095Y-95852380D01*
X29947142Y-95852380D01*
X30566190Y-94852380D02*
X30661428Y-94852380D01*
X30756666Y-94900000D01*
X30804285Y-94947619D01*
X30851904Y-95042857D01*
X30899523Y-95233333D01*
X30899523Y-95471428D01*
X30851904Y-95661904D01*
X30804285Y-95757142D01*
X30756666Y-95804761D01*
X30661428Y-95852380D01*
X30566190Y-95852380D01*
X30470952Y-95804761D01*
X30423333Y-95757142D01*
X30375714Y-95661904D01*
X30328095Y-95471428D01*
X30328095Y-95233333D01*
X30375714Y-95042857D01*
X30423333Y-94947619D01*
X30470952Y-94900000D01*
X30566190Y-94852380D01*
X31756666Y-95185714D02*
X31756666Y-95852380D01*
X31518571Y-94804761D02*
X31280476Y-95519047D01*
X31899523Y-95519047D01*
X32470952Y-94852380D02*
X32566190Y-94852380D01*
X32661428Y-94900000D01*
X32709047Y-94947619D01*
X32756666Y-95042857D01*
X32804285Y-95233333D01*
X32804285Y-95471428D01*
X32756666Y-95661904D01*
X32709047Y-95757142D01*
X32661428Y-95804761D01*
X32566190Y-95852380D01*
X32470952Y-95852380D01*
X32375714Y-95804761D01*
X32328095Y-95757142D01*
X32280476Y-95661904D01*
X32232857Y-95471428D01*
X32232857Y-95233333D01*
X32280476Y-95042857D01*
X32328095Y-94947619D01*
X32375714Y-94900000D01*
X32470952Y-94852380D01*
X26390000Y-95292380D02*
X26390000Y-95530476D01*
X26151904Y-95435238D02*
X26390000Y-95530476D01*
X26628095Y-95435238D01*
X26247142Y-95720952D02*
X26390000Y-95530476D01*
X26532857Y-95720952D01*
X26390000Y-95292380D02*
X26390000Y-95530476D01*
X26151904Y-95435238D02*
X26390000Y-95530476D01*
X26628095Y-95435238D01*
X26247142Y-95720952D02*
X26390000Y-95530476D01*
X26532857Y-95720952D01*
%TO.C,Sw14*%
X107288095Y-98149761D02*
X107430952Y-98197380D01*
X107669047Y-98197380D01*
X107764285Y-98149761D01*
X107811904Y-98102142D01*
X107859523Y-98006904D01*
X107859523Y-97911666D01*
X107811904Y-97816428D01*
X107764285Y-97768809D01*
X107669047Y-97721190D01*
X107478571Y-97673571D01*
X107383333Y-97625952D01*
X107335714Y-97578333D01*
X107288095Y-97483095D01*
X107288095Y-97387857D01*
X107335714Y-97292619D01*
X107383333Y-97245000D01*
X107478571Y-97197380D01*
X107716666Y-97197380D01*
X107859523Y-97245000D01*
X108192857Y-97530714D02*
X108383333Y-98197380D01*
X108573809Y-97721190D01*
X108764285Y-98197380D01*
X108954761Y-97530714D01*
X109859523Y-98197380D02*
X109288095Y-98197380D01*
X109573809Y-98197380D02*
X109573809Y-97197380D01*
X109478571Y-97340238D01*
X109383333Y-97435476D01*
X109288095Y-97483095D01*
X110716666Y-97530714D02*
X110716666Y-98197380D01*
X110478571Y-97149761D02*
X110240476Y-97864047D01*
X110859523Y-97864047D01*
%TO.C,Sw7*%
X69664285Y-119199761D02*
X69807142Y-119247380D01*
X70045238Y-119247380D01*
X70140476Y-119199761D01*
X70188095Y-119152142D01*
X70235714Y-119056904D01*
X70235714Y-118961666D01*
X70188095Y-118866428D01*
X70140476Y-118818809D01*
X70045238Y-118771190D01*
X69854761Y-118723571D01*
X69759523Y-118675952D01*
X69711904Y-118628333D01*
X69664285Y-118533095D01*
X69664285Y-118437857D01*
X69711904Y-118342619D01*
X69759523Y-118295000D01*
X69854761Y-118247380D01*
X70092857Y-118247380D01*
X70235714Y-118295000D01*
X70569047Y-118580714D02*
X70759523Y-119247380D01*
X70950000Y-118771190D01*
X71140476Y-119247380D01*
X71330952Y-118580714D01*
X71616666Y-118247380D02*
X72283333Y-118247380D01*
X71854761Y-119247380D01*
%TO.C,R3*%
X41083333Y-80552380D02*
X40750000Y-80076190D01*
X40511904Y-80552380D02*
X40511904Y-79552380D01*
X40892857Y-79552380D01*
X40988095Y-79600000D01*
X41035714Y-79647619D01*
X41083333Y-79742857D01*
X41083333Y-79885714D01*
X41035714Y-79980952D01*
X40988095Y-80028571D01*
X40892857Y-80076190D01*
X40511904Y-80076190D01*
X41416666Y-79552380D02*
X42035714Y-79552380D01*
X41702380Y-79933333D01*
X41845238Y-79933333D01*
X41940476Y-79980952D01*
X41988095Y-80028571D01*
X42035714Y-80123809D01*
X42035714Y-80361904D01*
X41988095Y-80457142D01*
X41940476Y-80504761D01*
X41845238Y-80552380D01*
X41559523Y-80552380D01*
X41464285Y-80504761D01*
X41416666Y-80457142D01*
%TO.C,C4*%
X32258333Y-114882142D02*
X32210714Y-114929761D01*
X32067857Y-114977380D01*
X31972619Y-114977380D01*
X31829761Y-114929761D01*
X31734523Y-114834523D01*
X31686904Y-114739285D01*
X31639285Y-114548809D01*
X31639285Y-114405952D01*
X31686904Y-114215476D01*
X31734523Y-114120238D01*
X31829761Y-114025000D01*
X31972619Y-113977380D01*
X32067857Y-113977380D01*
X32210714Y-114025000D01*
X32258333Y-114072619D01*
X33115476Y-114310714D02*
X33115476Y-114977380D01*
X32877380Y-113929761D02*
X32639285Y-114644047D01*
X33258333Y-114644047D01*
%TO.C,D3*%
X47586904Y-142152380D02*
X47586904Y-141152380D01*
X47825000Y-141152380D01*
X47967857Y-141200000D01*
X48063095Y-141295238D01*
X48110714Y-141390476D01*
X48158333Y-141580952D01*
X48158333Y-141723809D01*
X48110714Y-141914285D01*
X48063095Y-142009523D01*
X47967857Y-142104761D01*
X47825000Y-142152380D01*
X47586904Y-142152380D01*
X48491666Y-141152380D02*
X49110714Y-141152380D01*
X48777380Y-141533333D01*
X48920238Y-141533333D01*
X49015476Y-141580952D01*
X49063095Y-141628571D01*
X49110714Y-141723809D01*
X49110714Y-141961904D01*
X49063095Y-142057142D01*
X49015476Y-142104761D01*
X48920238Y-142152380D01*
X48634523Y-142152380D01*
X48539285Y-142104761D01*
X48491666Y-142057142D01*
%TO.C,Sw3*%
X69664285Y-141249761D02*
X69807142Y-141297380D01*
X70045238Y-141297380D01*
X70140476Y-141249761D01*
X70188095Y-141202142D01*
X70235714Y-141106904D01*
X70235714Y-141011666D01*
X70188095Y-140916428D01*
X70140476Y-140868809D01*
X70045238Y-140821190D01*
X69854761Y-140773571D01*
X69759523Y-140725952D01*
X69711904Y-140678333D01*
X69664285Y-140583095D01*
X69664285Y-140487857D01*
X69711904Y-140392619D01*
X69759523Y-140345000D01*
X69854761Y-140297380D01*
X70092857Y-140297380D01*
X70235714Y-140345000D01*
X70569047Y-140630714D02*
X70759523Y-141297380D01*
X70950000Y-140821190D01*
X71140476Y-141297380D01*
X71330952Y-140630714D01*
X71616666Y-140297380D02*
X72235714Y-140297380D01*
X71902380Y-140678333D01*
X72045238Y-140678333D01*
X72140476Y-140725952D01*
X72188095Y-140773571D01*
X72235714Y-140868809D01*
X72235714Y-141106904D01*
X72188095Y-141202142D01*
X72140476Y-141249761D01*
X72045238Y-141297380D01*
X71759523Y-141297380D01*
X71664285Y-141249761D01*
X71616666Y-141202142D01*
%TO.C,R7*%
X31126133Y-90419180D02*
X30792800Y-89942990D01*
X30554704Y-90419180D02*
X30554704Y-89419180D01*
X30935657Y-89419180D01*
X31030895Y-89466800D01*
X31078514Y-89514419D01*
X31126133Y-89609657D01*
X31126133Y-89752514D01*
X31078514Y-89847752D01*
X31030895Y-89895371D01*
X30935657Y-89942990D01*
X30554704Y-89942990D01*
X31459466Y-89419180D02*
X32126133Y-89419180D01*
X31697561Y-90419180D01*
%TO.C,D8*%
X60952380Y-126313095D02*
X59952380Y-126313095D01*
X59952380Y-126075000D01*
X60000000Y-125932142D01*
X60095238Y-125836904D01*
X60190476Y-125789285D01*
X60380952Y-125741666D01*
X60523809Y-125741666D01*
X60714285Y-125789285D01*
X60809523Y-125836904D01*
X60904761Y-125932142D01*
X60952380Y-126075000D01*
X60952380Y-126313095D01*
X60380952Y-125170238D02*
X60333333Y-125265476D01*
X60285714Y-125313095D01*
X60190476Y-125360714D01*
X60142857Y-125360714D01*
X60047619Y-125313095D01*
X60000000Y-125265476D01*
X59952380Y-125170238D01*
X59952380Y-124979761D01*
X60000000Y-124884523D01*
X60047619Y-124836904D01*
X60142857Y-124789285D01*
X60190476Y-124789285D01*
X60285714Y-124836904D01*
X60333333Y-124884523D01*
X60380952Y-124979761D01*
X60380952Y-125170238D01*
X60428571Y-125265476D01*
X60476190Y-125313095D01*
X60571428Y-125360714D01*
X60761904Y-125360714D01*
X60857142Y-125313095D01*
X60904761Y-125265476D01*
X60952380Y-125170238D01*
X60952380Y-124979761D01*
X60904761Y-124884523D01*
X60857142Y-124836904D01*
X60761904Y-124789285D01*
X60571428Y-124789285D01*
X60476190Y-124836904D01*
X60428571Y-124884523D01*
X60380952Y-124979761D01*
%TO.C,R6*%
X28833333Y-109852380D02*
X28500000Y-109376190D01*
X28261904Y-109852380D02*
X28261904Y-108852380D01*
X28642857Y-108852380D01*
X28738095Y-108900000D01*
X28785714Y-108947619D01*
X28833333Y-109042857D01*
X28833333Y-109185714D01*
X28785714Y-109280952D01*
X28738095Y-109328571D01*
X28642857Y-109376190D01*
X28261904Y-109376190D01*
X29690476Y-108852380D02*
X29500000Y-108852380D01*
X29404761Y-108900000D01*
X29357142Y-108947619D01*
X29261904Y-109090476D01*
X29214285Y-109280952D01*
X29214285Y-109661904D01*
X29261904Y-109757142D01*
X29309523Y-109804761D01*
X29404761Y-109852380D01*
X29595238Y-109852380D01*
X29690476Y-109804761D01*
X29738095Y-109757142D01*
X29785714Y-109661904D01*
X29785714Y-109423809D01*
X29738095Y-109328571D01*
X29690476Y-109280952D01*
X29595238Y-109233333D01*
X29404761Y-109233333D01*
X29309523Y-109280952D01*
X29261904Y-109328571D01*
X29214285Y-109423809D01*
%TO.C,Sw6*%
X50614285Y-87099761D02*
X50757142Y-87147380D01*
X50995238Y-87147380D01*
X51090476Y-87099761D01*
X51138095Y-87052142D01*
X51185714Y-86956904D01*
X51185714Y-86861666D01*
X51138095Y-86766428D01*
X51090476Y-86718809D01*
X50995238Y-86671190D01*
X50804761Y-86623571D01*
X50709523Y-86575952D01*
X50661904Y-86528333D01*
X50614285Y-86433095D01*
X50614285Y-86337857D01*
X50661904Y-86242619D01*
X50709523Y-86195000D01*
X50804761Y-86147380D01*
X51042857Y-86147380D01*
X51185714Y-86195000D01*
X51519047Y-86480714D02*
X51709523Y-87147380D01*
X51900000Y-86671190D01*
X52090476Y-87147380D01*
X52280952Y-86480714D01*
X53090476Y-86147380D02*
X52900000Y-86147380D01*
X52804761Y-86195000D01*
X52757142Y-86242619D01*
X52661904Y-86385476D01*
X52614285Y-86575952D01*
X52614285Y-86956904D01*
X52661904Y-87052142D01*
X52709523Y-87099761D01*
X52804761Y-87147380D01*
X52995238Y-87147380D01*
X53090476Y-87099761D01*
X53138095Y-87052142D01*
X53185714Y-86956904D01*
X53185714Y-86718809D01*
X53138095Y-86623571D01*
X53090476Y-86575952D01*
X52995238Y-86528333D01*
X52804761Y-86528333D01*
X52709523Y-86575952D01*
X52661904Y-86623571D01*
X52614285Y-86718809D01*
%TO.C,Sw12*%
X88238095Y-73099761D02*
X88380952Y-73147380D01*
X88619047Y-73147380D01*
X88714285Y-73099761D01*
X88761904Y-73052142D01*
X88809523Y-72956904D01*
X88809523Y-72861666D01*
X88761904Y-72766428D01*
X88714285Y-72718809D01*
X88619047Y-72671190D01*
X88428571Y-72623571D01*
X88333333Y-72575952D01*
X88285714Y-72528333D01*
X88238095Y-72433095D01*
X88238095Y-72337857D01*
X88285714Y-72242619D01*
X88333333Y-72195000D01*
X88428571Y-72147380D01*
X88666666Y-72147380D01*
X88809523Y-72195000D01*
X89142857Y-72480714D02*
X89333333Y-73147380D01*
X89523809Y-72671190D01*
X89714285Y-73147380D01*
X89904761Y-72480714D01*
X90809523Y-73147380D02*
X90238095Y-73147380D01*
X90523809Y-73147380D02*
X90523809Y-72147380D01*
X90428571Y-72290238D01*
X90333333Y-72385476D01*
X90238095Y-72433095D01*
X91190476Y-72242619D02*
X91238095Y-72195000D01*
X91333333Y-72147380D01*
X91571428Y-72147380D01*
X91666666Y-72195000D01*
X91714285Y-72242619D01*
X91761904Y-72337857D01*
X91761904Y-72433095D01*
X91714285Y-72575952D01*
X91142857Y-73147380D01*
X91761904Y-73147380D01*
%TO.C,Sw17*%
X126338095Y-111199761D02*
X126480952Y-111247380D01*
X126719047Y-111247380D01*
X126814285Y-111199761D01*
X126861904Y-111152142D01*
X126909523Y-111056904D01*
X126909523Y-110961666D01*
X126861904Y-110866428D01*
X126814285Y-110818809D01*
X126719047Y-110771190D01*
X126528571Y-110723571D01*
X126433333Y-110675952D01*
X126385714Y-110628333D01*
X126338095Y-110533095D01*
X126338095Y-110437857D01*
X126385714Y-110342619D01*
X126433333Y-110295000D01*
X126528571Y-110247380D01*
X126766666Y-110247380D01*
X126909523Y-110295000D01*
X127242857Y-110580714D02*
X127433333Y-111247380D01*
X127623809Y-110771190D01*
X127814285Y-111247380D01*
X128004761Y-110580714D01*
X128909523Y-111247380D02*
X128338095Y-111247380D01*
X128623809Y-111247380D02*
X128623809Y-110247380D01*
X128528571Y-110390238D01*
X128433333Y-110485476D01*
X128338095Y-110533095D01*
X129242857Y-110247380D02*
X129909523Y-110247380D01*
X129480952Y-111247380D01*
%TO.C,R10*%
X40301942Y-110688380D02*
X39968609Y-110212190D01*
X39730514Y-110688380D02*
X39730514Y-109688380D01*
X40111466Y-109688380D01*
X40206704Y-109736000D01*
X40254323Y-109783619D01*
X40301942Y-109878857D01*
X40301942Y-110021714D01*
X40254323Y-110116952D01*
X40206704Y-110164571D01*
X40111466Y-110212190D01*
X39730514Y-110212190D01*
X41254323Y-110688380D02*
X40682895Y-110688380D01*
X40968609Y-110688380D02*
X40968609Y-109688380D01*
X40873371Y-109831238D01*
X40778133Y-109926476D01*
X40682895Y-109974095D01*
X41873371Y-109688380D02*
X41968609Y-109688380D01*
X42063847Y-109736000D01*
X42111466Y-109783619D01*
X42159085Y-109878857D01*
X42206704Y-110069333D01*
X42206704Y-110307428D01*
X42159085Y-110497904D01*
X42111466Y-110593142D01*
X42063847Y-110640761D01*
X41968609Y-110688380D01*
X41873371Y-110688380D01*
X41778133Y-110640761D01*
X41730514Y-110593142D01*
X41682895Y-110497904D01*
X41635276Y-110307428D01*
X41635276Y-110069333D01*
X41682895Y-109878857D01*
X41730514Y-109783619D01*
X41778133Y-109736000D01*
X41873371Y-109688380D01*
%TO.C,D9*%
X60952380Y-107263095D02*
X59952380Y-107263095D01*
X59952380Y-107025000D01*
X60000000Y-106882142D01*
X60095238Y-106786904D01*
X60190476Y-106739285D01*
X60380952Y-106691666D01*
X60523809Y-106691666D01*
X60714285Y-106739285D01*
X60809523Y-106786904D01*
X60904761Y-106882142D01*
X60952380Y-107025000D01*
X60952380Y-107263095D01*
X60952380Y-106215476D02*
X60952380Y-106025000D01*
X60904761Y-105929761D01*
X60857142Y-105882142D01*
X60714285Y-105786904D01*
X60523809Y-105739285D01*
X60142857Y-105739285D01*
X60047619Y-105786904D01*
X60000000Y-105834523D01*
X59952380Y-105929761D01*
X59952380Y-106120238D01*
X60000000Y-106215476D01*
X60047619Y-106263095D01*
X60142857Y-106310714D01*
X60380952Y-106310714D01*
X60476190Y-106263095D01*
X60523809Y-106215476D01*
X60571428Y-106120238D01*
X60571428Y-105929761D01*
X60523809Y-105834523D01*
X60476190Y-105786904D01*
X60380952Y-105739285D01*
%TO.C,D12*%
X80052380Y-99689285D02*
X79052380Y-99689285D01*
X79052380Y-99451190D01*
X79100000Y-99308333D01*
X79195238Y-99213095D01*
X79290476Y-99165476D01*
X79480952Y-99117857D01*
X79623809Y-99117857D01*
X79814285Y-99165476D01*
X79909523Y-99213095D01*
X80004761Y-99308333D01*
X80052380Y-99451190D01*
X80052380Y-99689285D01*
X80052380Y-98165476D02*
X80052380Y-98736904D01*
X80052380Y-98451190D02*
X79052380Y-98451190D01*
X79195238Y-98546428D01*
X79290476Y-98641666D01*
X79338095Y-98736904D01*
X79147619Y-97784523D02*
X79100000Y-97736904D01*
X79052380Y-97641666D01*
X79052380Y-97403571D01*
X79100000Y-97308333D01*
X79147619Y-97260714D01*
X79242857Y-97213095D01*
X79338095Y-97213095D01*
X79480952Y-97260714D01*
X80052380Y-97832142D01*
X80052380Y-97213095D01*
%TO.C,Sw8*%
X69664285Y-100149761D02*
X69807142Y-100197380D01*
X70045238Y-100197380D01*
X70140476Y-100149761D01*
X70188095Y-100102142D01*
X70235714Y-100006904D01*
X70235714Y-99911666D01*
X70188095Y-99816428D01*
X70140476Y-99768809D01*
X70045238Y-99721190D01*
X69854761Y-99673571D01*
X69759523Y-99625952D01*
X69711904Y-99578333D01*
X69664285Y-99483095D01*
X69664285Y-99387857D01*
X69711904Y-99292619D01*
X69759523Y-99245000D01*
X69854761Y-99197380D01*
X70092857Y-99197380D01*
X70235714Y-99245000D01*
X70569047Y-99530714D02*
X70759523Y-100197380D01*
X70950000Y-99721190D01*
X71140476Y-100197380D01*
X71330952Y-99530714D01*
X71854761Y-99625952D02*
X71759523Y-99578333D01*
X71711904Y-99530714D01*
X71664285Y-99435476D01*
X71664285Y-99387857D01*
X71711904Y-99292619D01*
X71759523Y-99245000D01*
X71854761Y-99197380D01*
X72045238Y-99197380D01*
X72140476Y-99245000D01*
X72188095Y-99292619D01*
X72235714Y-99387857D01*
X72235714Y-99435476D01*
X72188095Y-99530714D01*
X72140476Y-99578333D01*
X72045238Y-99625952D01*
X71854761Y-99625952D01*
X71759523Y-99673571D01*
X71711904Y-99721190D01*
X71664285Y-99816428D01*
X71664285Y-100006904D01*
X71711904Y-100102142D01*
X71759523Y-100149761D01*
X71854761Y-100197380D01*
X72045238Y-100197380D01*
X72140476Y-100149761D01*
X72188095Y-100102142D01*
X72235714Y-100006904D01*
X72235714Y-99816428D01*
X72188095Y-99721190D01*
X72140476Y-99673571D01*
X72045238Y-99625952D01*
%TO.C,*%
%TO.C,Sw9*%
X69664285Y-81099761D02*
X69807142Y-81147380D01*
X70045238Y-81147380D01*
X70140476Y-81099761D01*
X70188095Y-81052142D01*
X70235714Y-80956904D01*
X70235714Y-80861666D01*
X70188095Y-80766428D01*
X70140476Y-80718809D01*
X70045238Y-80671190D01*
X69854761Y-80623571D01*
X69759523Y-80575952D01*
X69711904Y-80528333D01*
X69664285Y-80433095D01*
X69664285Y-80337857D01*
X69711904Y-80242619D01*
X69759523Y-80195000D01*
X69854761Y-80147380D01*
X70092857Y-80147380D01*
X70235714Y-80195000D01*
X70569047Y-80480714D02*
X70759523Y-81147380D01*
X70950000Y-80671190D01*
X71140476Y-81147380D01*
X71330952Y-80480714D01*
X71759523Y-81147380D02*
X71950000Y-81147380D01*
X72045238Y-81099761D01*
X72092857Y-81052142D01*
X72188095Y-80909285D01*
X72235714Y-80718809D01*
X72235714Y-80337857D01*
X72188095Y-80242619D01*
X72140476Y-80195000D01*
X72045238Y-80147380D01*
X71854761Y-80147380D01*
X71759523Y-80195000D01*
X71711904Y-80242619D01*
X71664285Y-80337857D01*
X71664285Y-80575952D01*
X71711904Y-80671190D01*
X71759523Y-80718809D01*
X71854761Y-80766428D01*
X72045238Y-80766428D01*
X72140476Y-80718809D01*
X72188095Y-80671190D01*
X72235714Y-80575952D01*
%TO.C,Sw20*%
X145388095Y-111199761D02*
X145530952Y-111247380D01*
X145769047Y-111247380D01*
X145864285Y-111199761D01*
X145911904Y-111152142D01*
X145959523Y-111056904D01*
X145959523Y-110961666D01*
X145911904Y-110866428D01*
X145864285Y-110818809D01*
X145769047Y-110771190D01*
X145578571Y-110723571D01*
X145483333Y-110675952D01*
X145435714Y-110628333D01*
X145388095Y-110533095D01*
X145388095Y-110437857D01*
X145435714Y-110342619D01*
X145483333Y-110295000D01*
X145578571Y-110247380D01*
X145816666Y-110247380D01*
X145959523Y-110295000D01*
X146292857Y-110580714D02*
X146483333Y-111247380D01*
X146673809Y-110771190D01*
X146864285Y-111247380D01*
X147054761Y-110580714D01*
X147388095Y-110342619D02*
X147435714Y-110295000D01*
X147530952Y-110247380D01*
X147769047Y-110247380D01*
X147864285Y-110295000D01*
X147911904Y-110342619D01*
X147959523Y-110437857D01*
X147959523Y-110533095D01*
X147911904Y-110675952D01*
X147340476Y-111247380D01*
X147959523Y-111247380D01*
X148578571Y-110247380D02*
X148673809Y-110247380D01*
X148769047Y-110295000D01*
X148816666Y-110342619D01*
X148864285Y-110437857D01*
X148911904Y-110628333D01*
X148911904Y-110866428D01*
X148864285Y-111056904D01*
X148816666Y-111152142D01*
X148769047Y-111199761D01*
X148673809Y-111247380D01*
X148578571Y-111247380D01*
X148483333Y-111199761D01*
X148435714Y-111152142D01*
X148388095Y-111056904D01*
X148340476Y-110866428D01*
X148340476Y-110628333D01*
X148388095Y-110437857D01*
X148435714Y-110342619D01*
X148483333Y-110295000D01*
X148578571Y-110247380D01*
%TO.C,J4*%
X34540866Y-121372380D02*
X34540866Y-122086666D01*
X34493247Y-122229523D01*
X34398009Y-122324761D01*
X34255152Y-122372380D01*
X34159914Y-122372380D01*
X35445628Y-121705714D02*
X35445628Y-122372380D01*
X35207533Y-121324761D02*
X34969438Y-122039047D01*
X35588485Y-122039047D01*
%TO.C,Sw21*%
X145388095Y-92149761D02*
X145530952Y-92197380D01*
X145769047Y-92197380D01*
X145864285Y-92149761D01*
X145911904Y-92102142D01*
X145959523Y-92006904D01*
X145959523Y-91911666D01*
X145911904Y-91816428D01*
X145864285Y-91768809D01*
X145769047Y-91721190D01*
X145578571Y-91673571D01*
X145483333Y-91625952D01*
X145435714Y-91578333D01*
X145388095Y-91483095D01*
X145388095Y-91387857D01*
X145435714Y-91292619D01*
X145483333Y-91245000D01*
X145578571Y-91197380D01*
X145816666Y-91197380D01*
X145959523Y-91245000D01*
X146292857Y-91530714D02*
X146483333Y-92197380D01*
X146673809Y-91721190D01*
X146864285Y-92197380D01*
X147054761Y-91530714D01*
X147388095Y-91292619D02*
X147435714Y-91245000D01*
X147530952Y-91197380D01*
X147769047Y-91197380D01*
X147864285Y-91245000D01*
X147911904Y-91292619D01*
X147959523Y-91387857D01*
X147959523Y-91483095D01*
X147911904Y-91625952D01*
X147340476Y-92197380D01*
X147959523Y-92197380D01*
X148911904Y-92197380D02*
X148340476Y-92197380D01*
X148626190Y-92197380D02*
X148626190Y-91197380D01*
X148530952Y-91340238D01*
X148435714Y-91435476D01*
X148340476Y-91483095D01*
%TO.C,C13*%
X23537942Y-102465142D02*
X23490323Y-102512761D01*
X23347466Y-102560380D01*
X23252228Y-102560380D01*
X23109371Y-102512761D01*
X23014133Y-102417523D01*
X22966514Y-102322285D01*
X22918895Y-102131809D01*
X22918895Y-101988952D01*
X22966514Y-101798476D01*
X23014133Y-101703238D01*
X23109371Y-101608000D01*
X23252228Y-101560380D01*
X23347466Y-101560380D01*
X23490323Y-101608000D01*
X23537942Y-101655619D01*
X24490323Y-102560380D02*
X23918895Y-102560380D01*
X24204609Y-102560380D02*
X24204609Y-101560380D01*
X24109371Y-101703238D01*
X24014133Y-101798476D01*
X23918895Y-101846095D01*
X24823657Y-101560380D02*
X25442704Y-101560380D01*
X25109371Y-101941333D01*
X25252228Y-101941333D01*
X25347466Y-101988952D01*
X25395085Y-102036571D01*
X25442704Y-102131809D01*
X25442704Y-102369904D01*
X25395085Y-102465142D01*
X25347466Y-102512761D01*
X25252228Y-102560380D01*
X24966514Y-102560380D01*
X24871276Y-102512761D01*
X24823657Y-102465142D01*
%TO.C,*%
%TO.C,D1*%
X38811904Y-80527380D02*
X38811904Y-79527380D01*
X39050000Y-79527380D01*
X39192857Y-79575000D01*
X39288095Y-79670238D01*
X39335714Y-79765476D01*
X39383333Y-79955952D01*
X39383333Y-80098809D01*
X39335714Y-80289285D01*
X39288095Y-80384523D01*
X39192857Y-80479761D01*
X39050000Y-80527380D01*
X38811904Y-80527380D01*
X40335714Y-80527380D02*
X39764285Y-80527380D01*
X40050000Y-80527380D02*
X40050000Y-79527380D01*
X39954761Y-79670238D01*
X39859523Y-79765476D01*
X39764285Y-79813095D01*
%TO.C,R8*%
X32878733Y-90419180D02*
X32545400Y-89942990D01*
X32307304Y-90419180D02*
X32307304Y-89419180D01*
X32688257Y-89419180D01*
X32783495Y-89466800D01*
X32831114Y-89514419D01*
X32878733Y-89609657D01*
X32878733Y-89752514D01*
X32831114Y-89847752D01*
X32783495Y-89895371D01*
X32688257Y-89942990D01*
X32307304Y-89942990D01*
X33450161Y-89847752D02*
X33354923Y-89800133D01*
X33307304Y-89752514D01*
X33259685Y-89657276D01*
X33259685Y-89609657D01*
X33307304Y-89514419D01*
X33354923Y-89466800D01*
X33450161Y-89419180D01*
X33640638Y-89419180D01*
X33735876Y-89466800D01*
X33783495Y-89514419D01*
X33831114Y-89609657D01*
X33831114Y-89657276D01*
X33783495Y-89752514D01*
X33735876Y-89800133D01*
X33640638Y-89847752D01*
X33450161Y-89847752D01*
X33354923Y-89895371D01*
X33307304Y-89942990D01*
X33259685Y-90038228D01*
X33259685Y-90228704D01*
X33307304Y-90323942D01*
X33354923Y-90371561D01*
X33450161Y-90419180D01*
X33640638Y-90419180D01*
X33735876Y-90371561D01*
X33783495Y-90323942D01*
X33831114Y-90228704D01*
X33831114Y-90038228D01*
X33783495Y-89942990D01*
X33735876Y-89895371D01*
X33640638Y-89847752D01*
%TO.C,SW2*%
X30966666Y-117854761D02*
X31109523Y-117902380D01*
X31347619Y-117902380D01*
X31442857Y-117854761D01*
X31490476Y-117807142D01*
X31538095Y-117711904D01*
X31538095Y-117616666D01*
X31490476Y-117521428D01*
X31442857Y-117473809D01*
X31347619Y-117426190D01*
X31157142Y-117378571D01*
X31061904Y-117330952D01*
X31014285Y-117283333D01*
X30966666Y-117188095D01*
X30966666Y-117092857D01*
X31014285Y-116997619D01*
X31061904Y-116950000D01*
X31157142Y-116902380D01*
X31395238Y-116902380D01*
X31538095Y-116950000D01*
X31871428Y-116902380D02*
X32109523Y-117902380D01*
X32300000Y-117188095D01*
X32490476Y-117902380D01*
X32728571Y-116902380D01*
X33061904Y-116997619D02*
X33109523Y-116950000D01*
X33204761Y-116902380D01*
X33442857Y-116902380D01*
X33538095Y-116950000D01*
X33585714Y-116997619D01*
X33633333Y-117092857D01*
X33633333Y-117188095D01*
X33585714Y-117330952D01*
X33014285Y-117902380D01*
X33633333Y-117902380D01*
%TO.C,D21*%
X141559114Y-109041580D02*
X141559114Y-108041580D01*
X141797209Y-108041580D01*
X141940066Y-108089200D01*
X142035304Y-108184438D01*
X142082923Y-108279676D01*
X142130542Y-108470152D01*
X142130542Y-108613009D01*
X142082923Y-108803485D01*
X142035304Y-108898723D01*
X141940066Y-108993961D01*
X141797209Y-109041580D01*
X141559114Y-109041580D01*
X142511495Y-108136819D02*
X142559114Y-108089200D01*
X142654352Y-108041580D01*
X142892447Y-108041580D01*
X142987685Y-108089200D01*
X143035304Y-108136819D01*
X143082923Y-108232057D01*
X143082923Y-108327295D01*
X143035304Y-108470152D01*
X142463876Y-109041580D01*
X143082923Y-109041580D01*
X144035304Y-109041580D02*
X143463876Y-109041580D01*
X143749590Y-109041580D02*
X143749590Y-108041580D01*
X143654352Y-108184438D01*
X143559114Y-108279676D01*
X143463876Y-108327295D01*
%TO.C,R11*%
X43121342Y-99537780D02*
X42788009Y-99061590D01*
X42549914Y-99537780D02*
X42549914Y-98537780D01*
X42930866Y-98537780D01*
X43026104Y-98585400D01*
X43073723Y-98633019D01*
X43121342Y-98728257D01*
X43121342Y-98871114D01*
X43073723Y-98966352D01*
X43026104Y-99013971D01*
X42930866Y-99061590D01*
X42549914Y-99061590D01*
X44073723Y-99537780D02*
X43502295Y-99537780D01*
X43788009Y-99537780D02*
X43788009Y-98537780D01*
X43692771Y-98680638D01*
X43597533Y-98775876D01*
X43502295Y-98823495D01*
X45026104Y-99537780D02*
X44454676Y-99537780D01*
X44740390Y-99537780D02*
X44740390Y-98537780D01*
X44645152Y-98680638D01*
X44549914Y-98775876D01*
X44454676Y-98823495D01*
%TO.C,Sw11*%
X88238095Y-92149761D02*
X88380952Y-92197380D01*
X88619047Y-92197380D01*
X88714285Y-92149761D01*
X88761904Y-92102142D01*
X88809523Y-92006904D01*
X88809523Y-91911666D01*
X88761904Y-91816428D01*
X88714285Y-91768809D01*
X88619047Y-91721190D01*
X88428571Y-91673571D01*
X88333333Y-91625952D01*
X88285714Y-91578333D01*
X88238095Y-91483095D01*
X88238095Y-91387857D01*
X88285714Y-91292619D01*
X88333333Y-91245000D01*
X88428571Y-91197380D01*
X88666666Y-91197380D01*
X88809523Y-91245000D01*
X89142857Y-91530714D02*
X89333333Y-92197380D01*
X89523809Y-91721190D01*
X89714285Y-92197380D01*
X89904761Y-91530714D01*
X90809523Y-92197380D02*
X90238095Y-92197380D01*
X90523809Y-92197380D02*
X90523809Y-91197380D01*
X90428571Y-91340238D01*
X90333333Y-91435476D01*
X90238095Y-91483095D01*
X91761904Y-92197380D02*
X91190476Y-92197380D01*
X91476190Y-92197380D02*
X91476190Y-91197380D01*
X91380952Y-91340238D01*
X91285714Y-91435476D01*
X91190476Y-91483095D01*
%TO.C,D4*%
X66661904Y-139127380D02*
X66661904Y-138127380D01*
X66900000Y-138127380D01*
X67042857Y-138175000D01*
X67138095Y-138270238D01*
X67185714Y-138365476D01*
X67233333Y-138555952D01*
X67233333Y-138698809D01*
X67185714Y-138889285D01*
X67138095Y-138984523D01*
X67042857Y-139079761D01*
X66900000Y-139127380D01*
X66661904Y-139127380D01*
X68090476Y-138460714D02*
X68090476Y-139127380D01*
X67852380Y-138079761D02*
X67614285Y-138794047D01*
X68233333Y-138794047D01*
%TO.C,D10*%
X60952380Y-88664285D02*
X59952380Y-88664285D01*
X59952380Y-88426190D01*
X60000000Y-88283333D01*
X60095238Y-88188095D01*
X60190476Y-88140476D01*
X60380952Y-88092857D01*
X60523809Y-88092857D01*
X60714285Y-88140476D01*
X60809523Y-88188095D01*
X60904761Y-88283333D01*
X60952380Y-88426190D01*
X60952380Y-88664285D01*
X60952380Y-87140476D02*
X60952380Y-87711904D01*
X60952380Y-87426190D02*
X59952380Y-87426190D01*
X60095238Y-87521428D01*
X60190476Y-87616666D01*
X60238095Y-87711904D01*
X59952380Y-86521428D02*
X59952380Y-86426190D01*
X60000000Y-86330952D01*
X60047619Y-86283333D01*
X60142857Y-86235714D01*
X60333333Y-86188095D01*
X60571428Y-86188095D01*
X60761904Y-86235714D01*
X60857142Y-86283333D01*
X60904761Y-86330952D01*
X60952380Y-86426190D01*
X60952380Y-86521428D01*
X60904761Y-86616666D01*
X60857142Y-86664285D01*
X60761904Y-86711904D01*
X60571428Y-86759523D01*
X60333333Y-86759523D01*
X60142857Y-86711904D01*
X60047619Y-86664285D01*
X60000000Y-86616666D01*
X59952380Y-86521428D01*
%TO.C,SW1*%
X17316666Y-114004761D02*
X17459523Y-114052380D01*
X17697619Y-114052380D01*
X17792857Y-114004761D01*
X17840476Y-113957142D01*
X17888095Y-113861904D01*
X17888095Y-113766666D01*
X17840476Y-113671428D01*
X17792857Y-113623809D01*
X17697619Y-113576190D01*
X17507142Y-113528571D01*
X17411904Y-113480952D01*
X17364285Y-113433333D01*
X17316666Y-113338095D01*
X17316666Y-113242857D01*
X17364285Y-113147619D01*
X17411904Y-113100000D01*
X17507142Y-113052380D01*
X17745238Y-113052380D01*
X17888095Y-113100000D01*
X18221428Y-113052380D02*
X18459523Y-114052380D01*
X18650000Y-113338095D01*
X18840476Y-114052380D01*
X19078571Y-113052380D01*
X19983333Y-114052380D02*
X19411904Y-114052380D01*
X19697619Y-114052380D02*
X19697619Y-113052380D01*
X19602380Y-113195238D01*
X19507142Y-113290476D01*
X19411904Y-113338095D01*
%TO.C,C16*%
X39307142Y-94382142D02*
X39259523Y-94429761D01*
X39116666Y-94477380D01*
X39021428Y-94477380D01*
X38878571Y-94429761D01*
X38783333Y-94334523D01*
X38735714Y-94239285D01*
X38688095Y-94048809D01*
X38688095Y-93905952D01*
X38735714Y-93715476D01*
X38783333Y-93620238D01*
X38878571Y-93525000D01*
X39021428Y-93477380D01*
X39116666Y-93477380D01*
X39259523Y-93525000D01*
X39307142Y-93572619D01*
X40259523Y-94477380D02*
X39688095Y-94477380D01*
X39973809Y-94477380D02*
X39973809Y-93477380D01*
X39878571Y-93620238D01*
X39783333Y-93715476D01*
X39688095Y-93763095D01*
X41116666Y-93477380D02*
X40926190Y-93477380D01*
X40830952Y-93525000D01*
X40783333Y-93572619D01*
X40688095Y-93715476D01*
X40640476Y-93905952D01*
X40640476Y-94286904D01*
X40688095Y-94382142D01*
X40735714Y-94429761D01*
X40830952Y-94477380D01*
X41021428Y-94477380D01*
X41116666Y-94429761D01*
X41164285Y-94382142D01*
X41211904Y-94286904D01*
X41211904Y-94048809D01*
X41164285Y-93953571D01*
X41116666Y-93905952D01*
X41021428Y-93858333D01*
X40830952Y-93858333D01*
X40735714Y-93905952D01*
X40688095Y-93953571D01*
X40640476Y-94048809D01*
%TO.C,*%
%TO.C,R5*%
X20208333Y-91827380D02*
X19875000Y-91351190D01*
X19636904Y-91827380D02*
X19636904Y-90827380D01*
X20017857Y-90827380D01*
X20113095Y-90875000D01*
X20160714Y-90922619D01*
X20208333Y-91017857D01*
X20208333Y-91160714D01*
X20160714Y-91255952D01*
X20113095Y-91303571D01*
X20017857Y-91351190D01*
X19636904Y-91351190D01*
X21113095Y-90827380D02*
X20636904Y-90827380D01*
X20589285Y-91303571D01*
X20636904Y-91255952D01*
X20732142Y-91208333D01*
X20970238Y-91208333D01*
X21065476Y-91255952D01*
X21113095Y-91303571D01*
X21160714Y-91398809D01*
X21160714Y-91636904D01*
X21113095Y-91732142D01*
X21065476Y-91779761D01*
X20970238Y-91827380D01*
X20732142Y-91827380D01*
X20636904Y-91779761D01*
X20589285Y-91732142D01*
%TO.C,D14*%
X99077380Y-124764285D02*
X98077380Y-124764285D01*
X98077380Y-124526190D01*
X98125000Y-124383333D01*
X98220238Y-124288095D01*
X98315476Y-124240476D01*
X98505952Y-124192857D01*
X98648809Y-124192857D01*
X98839285Y-124240476D01*
X98934523Y-124288095D01*
X99029761Y-124383333D01*
X99077380Y-124526190D01*
X99077380Y-124764285D01*
X99077380Y-123240476D02*
X99077380Y-123811904D01*
X99077380Y-123526190D02*
X98077380Y-123526190D01*
X98220238Y-123621428D01*
X98315476Y-123716666D01*
X98363095Y-123811904D01*
X98410714Y-122383333D02*
X99077380Y-122383333D01*
X98029761Y-122621428D02*
X98744047Y-122859523D01*
X98744047Y-122240476D01*
%TO.C,Sw2*%
X50614285Y-144249761D02*
X50757142Y-144297380D01*
X50995238Y-144297380D01*
X51090476Y-144249761D01*
X51138095Y-144202142D01*
X51185714Y-144106904D01*
X51185714Y-144011666D01*
X51138095Y-143916428D01*
X51090476Y-143868809D01*
X50995238Y-143821190D01*
X50804761Y-143773571D01*
X50709523Y-143725952D01*
X50661904Y-143678333D01*
X50614285Y-143583095D01*
X50614285Y-143487857D01*
X50661904Y-143392619D01*
X50709523Y-143345000D01*
X50804761Y-143297380D01*
X51042857Y-143297380D01*
X51185714Y-143345000D01*
X51519047Y-143630714D02*
X51709523Y-144297380D01*
X51900000Y-143821190D01*
X52090476Y-144297380D01*
X52280952Y-143630714D01*
X52614285Y-143392619D02*
X52661904Y-143345000D01*
X52757142Y-143297380D01*
X52995238Y-143297380D01*
X53090476Y-143345000D01*
X53138095Y-143392619D01*
X53185714Y-143487857D01*
X53185714Y-143583095D01*
X53138095Y-143725952D01*
X52566666Y-144297380D01*
X53185714Y-144297380D01*
%TO.C,Sw1*%
X31564285Y-147249761D02*
X31707142Y-147297380D01*
X31945238Y-147297380D01*
X32040476Y-147249761D01*
X32088095Y-147202142D01*
X32135714Y-147106904D01*
X32135714Y-147011666D01*
X32088095Y-146916428D01*
X32040476Y-146868809D01*
X31945238Y-146821190D01*
X31754761Y-146773571D01*
X31659523Y-146725952D01*
X31611904Y-146678333D01*
X31564285Y-146583095D01*
X31564285Y-146487857D01*
X31611904Y-146392619D01*
X31659523Y-146345000D01*
X31754761Y-146297380D01*
X31992857Y-146297380D01*
X32135714Y-146345000D01*
X32469047Y-146630714D02*
X32659523Y-147297380D01*
X32850000Y-146821190D01*
X33040476Y-147297380D01*
X33230952Y-146630714D01*
X34135714Y-147297380D02*
X33564285Y-147297380D01*
X33850000Y-147297380D02*
X33850000Y-146297380D01*
X33754761Y-146440238D01*
X33659523Y-146535476D01*
X33564285Y-146583095D01*
%TO.C,REF\u002A\u002A*%
X17666666Y-158252380D02*
X17333333Y-157776190D01*
X17095238Y-158252380D02*
X17095238Y-157252380D01*
X17476190Y-157252380D01*
X17571428Y-157300000D01*
X17619047Y-157347619D01*
X17666666Y-157442857D01*
X17666666Y-157585714D01*
X17619047Y-157680952D01*
X17571428Y-157728571D01*
X17476190Y-157776190D01*
X17095238Y-157776190D01*
X18095238Y-157728571D02*
X18428571Y-157728571D01*
X18571428Y-158252380D02*
X18095238Y-158252380D01*
X18095238Y-157252380D01*
X18571428Y-157252380D01*
X19333333Y-157728571D02*
X19000000Y-157728571D01*
X19000000Y-158252380D02*
X19000000Y-157252380D01*
X19476190Y-157252380D01*
X20000000Y-157252380D02*
X20000000Y-157490476D01*
X19761904Y-157395238D02*
X20000000Y-157490476D01*
X20238095Y-157395238D01*
X19857142Y-157680952D02*
X20000000Y-157490476D01*
X20142857Y-157680952D01*
X20761904Y-157252380D02*
X20761904Y-157490476D01*
X20523809Y-157395238D02*
X20761904Y-157490476D01*
X21000000Y-157395238D01*
X20619047Y-157680952D02*
X20761904Y-157490476D01*
X20904761Y-157680952D01*
%TO.C,D16*%
X99052380Y-86639285D02*
X98052380Y-86639285D01*
X98052380Y-86401190D01*
X98100000Y-86258333D01*
X98195238Y-86163095D01*
X98290476Y-86115476D01*
X98480952Y-86067857D01*
X98623809Y-86067857D01*
X98814285Y-86115476D01*
X98909523Y-86163095D01*
X99004761Y-86258333D01*
X99052380Y-86401190D01*
X99052380Y-86639285D01*
X99052380Y-85115476D02*
X99052380Y-85686904D01*
X99052380Y-85401190D02*
X98052380Y-85401190D01*
X98195238Y-85496428D01*
X98290476Y-85591666D01*
X98338095Y-85686904D01*
X98052380Y-84258333D02*
X98052380Y-84448809D01*
X98100000Y-84544047D01*
X98147619Y-84591666D01*
X98290476Y-84686904D01*
X98480952Y-84734523D01*
X98861904Y-84734523D01*
X98957142Y-84686904D01*
X99004761Y-84639285D01*
X99052380Y-84544047D01*
X99052380Y-84353571D01*
X99004761Y-84258333D01*
X98957142Y-84210714D01*
X98861904Y-84163095D01*
X98623809Y-84163095D01*
X98528571Y-84210714D01*
X98480952Y-84258333D01*
X98433333Y-84353571D01*
X98433333Y-84544047D01*
X98480952Y-84639285D01*
X98528571Y-84686904D01*
X98623809Y-84734523D01*
%TO.C,D11*%
X80052380Y-118764285D02*
X79052380Y-118764285D01*
X79052380Y-118526190D01*
X79100000Y-118383333D01*
X79195238Y-118288095D01*
X79290476Y-118240476D01*
X79480952Y-118192857D01*
X79623809Y-118192857D01*
X79814285Y-118240476D01*
X79909523Y-118288095D01*
X80004761Y-118383333D01*
X80052380Y-118526190D01*
X80052380Y-118764285D01*
X80052380Y-117240476D02*
X80052380Y-117811904D01*
X80052380Y-117526190D02*
X79052380Y-117526190D01*
X79195238Y-117621428D01*
X79290476Y-117716666D01*
X79338095Y-117811904D01*
X80052380Y-116288095D02*
X80052380Y-116859523D01*
X80052380Y-116573809D02*
X79052380Y-116573809D01*
X79195238Y-116669047D01*
X79290476Y-116764285D01*
X79338095Y-116859523D01*
%TO.C,R9*%
X41133733Y-129687580D02*
X40800400Y-129211390D01*
X40562304Y-129687580D02*
X40562304Y-128687580D01*
X40943257Y-128687580D01*
X41038495Y-128735200D01*
X41086114Y-128782819D01*
X41133733Y-128878057D01*
X41133733Y-129020914D01*
X41086114Y-129116152D01*
X41038495Y-129163771D01*
X40943257Y-129211390D01*
X40562304Y-129211390D01*
X41609923Y-129687580D02*
X41800400Y-129687580D01*
X41895638Y-129639961D01*
X41943257Y-129592342D01*
X42038495Y-129449485D01*
X42086114Y-129259009D01*
X42086114Y-128878057D01*
X42038495Y-128782819D01*
X41990876Y-128735200D01*
X41895638Y-128687580D01*
X41705161Y-128687580D01*
X41609923Y-128735200D01*
X41562304Y-128782819D01*
X41514685Y-128878057D01*
X41514685Y-129116152D01*
X41562304Y-129211390D01*
X41609923Y-129259009D01*
X41705161Y-129306628D01*
X41895638Y-129306628D01*
X41990876Y-129259009D01*
X42038495Y-129211390D01*
X42086114Y-129116152D01*
%TO.C,D17*%
X118127380Y-137814285D02*
X117127380Y-137814285D01*
X117127380Y-137576190D01*
X117175000Y-137433333D01*
X117270238Y-137338095D01*
X117365476Y-137290476D01*
X117555952Y-137242857D01*
X117698809Y-137242857D01*
X117889285Y-137290476D01*
X117984523Y-137338095D01*
X118079761Y-137433333D01*
X118127380Y-137576190D01*
X118127380Y-137814285D01*
X118127380Y-136290476D02*
X118127380Y-136861904D01*
X118127380Y-136576190D02*
X117127380Y-136576190D01*
X117270238Y-136671428D01*
X117365476Y-136766666D01*
X117413095Y-136861904D01*
X117127380Y-135957142D02*
X117127380Y-135290476D01*
X118127380Y-135719047D01*
%TO.C,D18*%
X118152380Y-118764285D02*
X117152380Y-118764285D01*
X117152380Y-118526190D01*
X117200000Y-118383333D01*
X117295238Y-118288095D01*
X117390476Y-118240476D01*
X117580952Y-118192857D01*
X117723809Y-118192857D01*
X117914285Y-118240476D01*
X118009523Y-118288095D01*
X118104761Y-118383333D01*
X118152380Y-118526190D01*
X118152380Y-118764285D01*
X118152380Y-117240476D02*
X118152380Y-117811904D01*
X118152380Y-117526190D02*
X117152380Y-117526190D01*
X117295238Y-117621428D01*
X117390476Y-117716666D01*
X117438095Y-117811904D01*
X117580952Y-116669047D02*
X117533333Y-116764285D01*
X117485714Y-116811904D01*
X117390476Y-116859523D01*
X117342857Y-116859523D01*
X117247619Y-116811904D01*
X117200000Y-116764285D01*
X117152380Y-116669047D01*
X117152380Y-116478571D01*
X117200000Y-116383333D01*
X117247619Y-116335714D01*
X117342857Y-116288095D01*
X117390476Y-116288095D01*
X117485714Y-116335714D01*
X117533333Y-116383333D01*
X117580952Y-116478571D01*
X117580952Y-116669047D01*
X117628571Y-116764285D01*
X117676190Y-116811904D01*
X117771428Y-116859523D01*
X117961904Y-116859523D01*
X118057142Y-116811904D01*
X118104761Y-116764285D01*
X118152380Y-116669047D01*
X118152380Y-116478571D01*
X118104761Y-116383333D01*
X118057142Y-116335714D01*
X117961904Y-116288095D01*
X117771428Y-116288095D01*
X117676190Y-116335714D01*
X117628571Y-116383333D01*
X117580952Y-116478571D01*
%TO.C,D13*%
X80002380Y-80664285D02*
X79002380Y-80664285D01*
X79002380Y-80426190D01*
X79050000Y-80283333D01*
X79145238Y-80188095D01*
X79240476Y-80140476D01*
X79430952Y-80092857D01*
X79573809Y-80092857D01*
X79764285Y-80140476D01*
X79859523Y-80188095D01*
X79954761Y-80283333D01*
X80002380Y-80426190D01*
X80002380Y-80664285D01*
X80002380Y-79140476D02*
X80002380Y-79711904D01*
X80002380Y-79426190D02*
X79002380Y-79426190D01*
X79145238Y-79521428D01*
X79240476Y-79616666D01*
X79288095Y-79711904D01*
X79002380Y-78807142D02*
X79002380Y-78188095D01*
X79383333Y-78521428D01*
X79383333Y-78378571D01*
X79430952Y-78283333D01*
X79478571Y-78235714D01*
X79573809Y-78188095D01*
X79811904Y-78188095D01*
X79907142Y-78235714D01*
X79954761Y-78283333D01*
X80002380Y-78378571D01*
X80002380Y-78664285D01*
X79954761Y-78759523D01*
X79907142Y-78807142D01*
%TO.C,D15*%
X99102380Y-105764285D02*
X98102380Y-105764285D01*
X98102380Y-105526190D01*
X98150000Y-105383333D01*
X98245238Y-105288095D01*
X98340476Y-105240476D01*
X98530952Y-105192857D01*
X98673809Y-105192857D01*
X98864285Y-105240476D01*
X98959523Y-105288095D01*
X99054761Y-105383333D01*
X99102380Y-105526190D01*
X99102380Y-105764285D01*
X99102380Y-104240476D02*
X99102380Y-104811904D01*
X99102380Y-104526190D02*
X98102380Y-104526190D01*
X98245238Y-104621428D01*
X98340476Y-104716666D01*
X98388095Y-104811904D01*
X98102380Y-103335714D02*
X98102380Y-103811904D01*
X98578571Y-103859523D01*
X98530952Y-103811904D01*
X98483333Y-103716666D01*
X98483333Y-103478571D01*
X98530952Y-103383333D01*
X98578571Y-103335714D01*
X98673809Y-103288095D01*
X98911904Y-103288095D01*
X99007142Y-103335714D01*
X99054761Y-103383333D01*
X99102380Y-103478571D01*
X99102380Y-103716666D01*
X99054761Y-103811904D01*
X99007142Y-103859523D01*
%TO.C,C14*%
X23202142Y-93947142D02*
X23154523Y-93994761D01*
X23011666Y-94042380D01*
X22916428Y-94042380D01*
X22773571Y-93994761D01*
X22678333Y-93899523D01*
X22630714Y-93804285D01*
X22583095Y-93613809D01*
X22583095Y-93470952D01*
X22630714Y-93280476D01*
X22678333Y-93185238D01*
X22773571Y-93090000D01*
X22916428Y-93042380D01*
X23011666Y-93042380D01*
X23154523Y-93090000D01*
X23202142Y-93137619D01*
X24154523Y-94042380D02*
X23583095Y-94042380D01*
X23868809Y-94042380D02*
X23868809Y-93042380D01*
X23773571Y-93185238D01*
X23678333Y-93280476D01*
X23583095Y-93328095D01*
X25011666Y-93375714D02*
X25011666Y-94042380D01*
X24773571Y-92994761D02*
X24535476Y-93709047D01*
X25154523Y-93709047D01*
%TO.C,C5*%
X38608333Y-109757142D02*
X38560714Y-109804761D01*
X38417857Y-109852380D01*
X38322619Y-109852380D01*
X38179761Y-109804761D01*
X38084523Y-109709523D01*
X38036904Y-109614285D01*
X37989285Y-109423809D01*
X37989285Y-109280952D01*
X38036904Y-109090476D01*
X38084523Y-108995238D01*
X38179761Y-108900000D01*
X38322619Y-108852380D01*
X38417857Y-108852380D01*
X38560714Y-108900000D01*
X38608333Y-108947619D01*
X39513095Y-108852380D02*
X39036904Y-108852380D01*
X38989285Y-109328571D01*
X39036904Y-109280952D01*
X39132142Y-109233333D01*
X39370238Y-109233333D01*
X39465476Y-109280952D01*
X39513095Y-109328571D01*
X39560714Y-109423809D01*
X39560714Y-109661904D01*
X39513095Y-109757142D01*
X39465476Y-109804761D01*
X39370238Y-109852380D01*
X39132142Y-109852380D01*
X39036904Y-109804761D01*
X38989285Y-109757142D01*
%TO.C,Sw4*%
X50614285Y-125199761D02*
X50757142Y-125247380D01*
X50995238Y-125247380D01*
X51090476Y-125199761D01*
X51138095Y-125152142D01*
X51185714Y-125056904D01*
X51185714Y-124961666D01*
X51138095Y-124866428D01*
X51090476Y-124818809D01*
X50995238Y-124771190D01*
X50804761Y-124723571D01*
X50709523Y-124675952D01*
X50661904Y-124628333D01*
X50614285Y-124533095D01*
X50614285Y-124437857D01*
X50661904Y-124342619D01*
X50709523Y-124295000D01*
X50804761Y-124247380D01*
X51042857Y-124247380D01*
X51185714Y-124295000D01*
X51519047Y-124580714D02*
X51709523Y-125247380D01*
X51900000Y-124771190D01*
X52090476Y-125247380D01*
X52280952Y-124580714D01*
X53090476Y-124580714D02*
X53090476Y-125247380D01*
X52852380Y-124199761D02*
X52614285Y-124914047D01*
X53233333Y-124914047D01*
%TO.C,R4*%
X18959533Y-104897180D02*
X18626200Y-104420990D01*
X18388104Y-104897180D02*
X18388104Y-103897180D01*
X18769057Y-103897180D01*
X18864295Y-103944800D01*
X18911914Y-103992419D01*
X18959533Y-104087657D01*
X18959533Y-104230514D01*
X18911914Y-104325752D01*
X18864295Y-104373371D01*
X18769057Y-104420990D01*
X18388104Y-104420990D01*
X19816676Y-104230514D02*
X19816676Y-104897180D01*
X19578580Y-103849561D02*
X19340485Y-104563847D01*
X19959533Y-104563847D01*
%TO.C,Y1*%
X31473809Y-112826190D02*
X31473809Y-113302380D01*
X31140476Y-112302380D02*
X31473809Y-112826190D01*
X31807142Y-112302380D01*
X32664285Y-113302380D02*
X32092857Y-113302380D01*
X32378571Y-113302380D02*
X32378571Y-112302380D01*
X32283333Y-112445238D01*
X32188095Y-112540476D01*
X32092857Y-112588095D01*
%TO.C,Sw13*%
X107288095Y-117199761D02*
X107430952Y-117247380D01*
X107669047Y-117247380D01*
X107764285Y-117199761D01*
X107811904Y-117152142D01*
X107859523Y-117056904D01*
X107859523Y-116961666D01*
X107811904Y-116866428D01*
X107764285Y-116818809D01*
X107669047Y-116771190D01*
X107478571Y-116723571D01*
X107383333Y-116675952D01*
X107335714Y-116628333D01*
X107288095Y-116533095D01*
X107288095Y-116437857D01*
X107335714Y-116342619D01*
X107383333Y-116295000D01*
X107478571Y-116247380D01*
X107716666Y-116247380D01*
X107859523Y-116295000D01*
X108192857Y-116580714D02*
X108383333Y-117247380D01*
X108573809Y-116771190D01*
X108764285Y-117247380D01*
X108954761Y-116580714D01*
X109859523Y-117247380D02*
X109288095Y-117247380D01*
X109573809Y-117247380D02*
X109573809Y-116247380D01*
X109478571Y-116390238D01*
X109383333Y-116485476D01*
X109288095Y-116533095D01*
X110192857Y-116247380D02*
X110811904Y-116247380D01*
X110478571Y-116628333D01*
X110621428Y-116628333D01*
X110716666Y-116675952D01*
X110764285Y-116723571D01*
X110811904Y-116818809D01*
X110811904Y-117056904D01*
X110764285Y-117152142D01*
X110716666Y-117199761D01*
X110621428Y-117247380D01*
X110335714Y-117247380D01*
X110240476Y-117199761D01*
X110192857Y-117152142D01*
%TO.C,*%
%TO.C,D22*%
X140949514Y-90093180D02*
X140949514Y-89093180D01*
X141187609Y-89093180D01*
X141330466Y-89140800D01*
X141425704Y-89236038D01*
X141473323Y-89331276D01*
X141520942Y-89521752D01*
X141520942Y-89664609D01*
X141473323Y-89855085D01*
X141425704Y-89950323D01*
X141330466Y-90045561D01*
X141187609Y-90093180D01*
X140949514Y-90093180D01*
X141901895Y-89188419D02*
X141949514Y-89140800D01*
X142044752Y-89093180D01*
X142282847Y-89093180D01*
X142378085Y-89140800D01*
X142425704Y-89188419D01*
X142473323Y-89283657D01*
X142473323Y-89378895D01*
X142425704Y-89521752D01*
X141854276Y-90093180D01*
X142473323Y-90093180D01*
X142854276Y-89188419D02*
X142901895Y-89140800D01*
X142997133Y-89093180D01*
X143235228Y-89093180D01*
X143330466Y-89140800D01*
X143378085Y-89188419D01*
X143425704Y-89283657D01*
X143425704Y-89378895D01*
X143378085Y-89521752D01*
X142806657Y-90093180D01*
X143425704Y-90093180D01*
%TO.C,Sw19*%
X145388095Y-130249761D02*
X145530952Y-130297380D01*
X145769047Y-130297380D01*
X145864285Y-130249761D01*
X145911904Y-130202142D01*
X145959523Y-130106904D01*
X145959523Y-130011666D01*
X145911904Y-129916428D01*
X145864285Y-129868809D01*
X145769047Y-129821190D01*
X145578571Y-129773571D01*
X145483333Y-129725952D01*
X145435714Y-129678333D01*
X145388095Y-129583095D01*
X145388095Y-129487857D01*
X145435714Y-129392619D01*
X145483333Y-129345000D01*
X145578571Y-129297380D01*
X145816666Y-129297380D01*
X145959523Y-129345000D01*
X146292857Y-129630714D02*
X146483333Y-130297380D01*
X146673809Y-129821190D01*
X146864285Y-130297380D01*
X147054761Y-129630714D01*
X147959523Y-130297380D02*
X147388095Y-130297380D01*
X147673809Y-130297380D02*
X147673809Y-129297380D01*
X147578571Y-129440238D01*
X147483333Y-129535476D01*
X147388095Y-129583095D01*
X148435714Y-130297380D02*
X148626190Y-130297380D01*
X148721428Y-130249761D01*
X148769047Y-130202142D01*
X148864285Y-130059285D01*
X148911904Y-129868809D01*
X148911904Y-129487857D01*
X148864285Y-129392619D01*
X148816666Y-129345000D01*
X148721428Y-129297380D01*
X148530952Y-129297380D01*
X148435714Y-129345000D01*
X148388095Y-129392619D01*
X148340476Y-129487857D01*
X148340476Y-129725952D01*
X148388095Y-129821190D01*
X148435714Y-129868809D01*
X148530952Y-129916428D01*
X148721428Y-129916428D01*
X148816666Y-129868809D01*
X148864285Y-129821190D01*
X148911904Y-129725952D01*
%TO.C,C6*%
X35799733Y-91416142D02*
X35752114Y-91463761D01*
X35609257Y-91511380D01*
X35514019Y-91511380D01*
X35371161Y-91463761D01*
X35275923Y-91368523D01*
X35228304Y-91273285D01*
X35180685Y-91082809D01*
X35180685Y-90939952D01*
X35228304Y-90749476D01*
X35275923Y-90654238D01*
X35371161Y-90559000D01*
X35514019Y-90511380D01*
X35609257Y-90511380D01*
X35752114Y-90559000D01*
X35799733Y-90606619D01*
X36656876Y-90511380D02*
X36466400Y-90511380D01*
X36371161Y-90559000D01*
X36323542Y-90606619D01*
X36228304Y-90749476D01*
X36180685Y-90939952D01*
X36180685Y-91320904D01*
X36228304Y-91416142D01*
X36275923Y-91463761D01*
X36371161Y-91511380D01*
X36561638Y-91511380D01*
X36656876Y-91463761D01*
X36704495Y-91416142D01*
X36752114Y-91320904D01*
X36752114Y-91082809D01*
X36704495Y-90987571D01*
X36656876Y-90939952D01*
X36561638Y-90892333D01*
X36371161Y-90892333D01*
X36275923Y-90939952D01*
X36228304Y-90987571D01*
X36180685Y-91082809D01*
%TO.C,C2*%
X54808333Y-81632142D02*
X54760714Y-81679761D01*
X54617857Y-81727380D01*
X54522619Y-81727380D01*
X54379761Y-81679761D01*
X54284523Y-81584523D01*
X54236904Y-81489285D01*
X54189285Y-81298809D01*
X54189285Y-81155952D01*
X54236904Y-80965476D01*
X54284523Y-80870238D01*
X54379761Y-80775000D01*
X54522619Y-80727380D01*
X54617857Y-80727380D01*
X54760714Y-80775000D01*
X54808333Y-80822619D01*
X55189285Y-80822619D02*
X55236904Y-80775000D01*
X55332142Y-80727380D01*
X55570238Y-80727380D01*
X55665476Y-80775000D01*
X55713095Y-80822619D01*
X55760714Y-80917857D01*
X55760714Y-81013095D01*
X55713095Y-81155952D01*
X55141666Y-81727380D01*
X55760714Y-81727380D01*
%TO.C,C12*%
X30782142Y-108007142D02*
X30734523Y-108054761D01*
X30591666Y-108102380D01*
X30496428Y-108102380D01*
X30353571Y-108054761D01*
X30258333Y-107959523D01*
X30210714Y-107864285D01*
X30163095Y-107673809D01*
X30163095Y-107530952D01*
X30210714Y-107340476D01*
X30258333Y-107245238D01*
X30353571Y-107150000D01*
X30496428Y-107102380D01*
X30591666Y-107102380D01*
X30734523Y-107150000D01*
X30782142Y-107197619D01*
X31734523Y-108102380D02*
X31163095Y-108102380D01*
X31448809Y-108102380D02*
X31448809Y-107102380D01*
X31353571Y-107245238D01*
X31258333Y-107340476D01*
X31163095Y-107388095D01*
X32115476Y-107197619D02*
X32163095Y-107150000D01*
X32258333Y-107102380D01*
X32496428Y-107102380D01*
X32591666Y-107150000D01*
X32639285Y-107197619D01*
X32686904Y-107292857D01*
X32686904Y-107388095D01*
X32639285Y-107530952D01*
X32067857Y-108102380D01*
X32686904Y-108102380D01*
%TO.C,C11*%
X43007142Y-104457142D02*
X42959523Y-104504761D01*
X42816666Y-104552380D01*
X42721428Y-104552380D01*
X42578571Y-104504761D01*
X42483333Y-104409523D01*
X42435714Y-104314285D01*
X42388095Y-104123809D01*
X42388095Y-103980952D01*
X42435714Y-103790476D01*
X42483333Y-103695238D01*
X42578571Y-103600000D01*
X42721428Y-103552380D01*
X42816666Y-103552380D01*
X42959523Y-103600000D01*
X43007142Y-103647619D01*
X43959523Y-104552380D02*
X43388095Y-104552380D01*
X43673809Y-104552380D02*
X43673809Y-103552380D01*
X43578571Y-103695238D01*
X43483333Y-103790476D01*
X43388095Y-103838095D01*
X44911904Y-104552380D02*
X44340476Y-104552380D01*
X44626190Y-104552380D02*
X44626190Y-103552380D01*
X44530952Y-103695238D01*
X44435714Y-103790476D01*
X44340476Y-103838095D01*
%TO.C,Sw15*%
X107288095Y-79099761D02*
X107430952Y-79147380D01*
X107669047Y-79147380D01*
X107764285Y-79099761D01*
X107811904Y-79052142D01*
X107859523Y-78956904D01*
X107859523Y-78861666D01*
X107811904Y-78766428D01*
X107764285Y-78718809D01*
X107669047Y-78671190D01*
X107478571Y-78623571D01*
X107383333Y-78575952D01*
X107335714Y-78528333D01*
X107288095Y-78433095D01*
X107288095Y-78337857D01*
X107335714Y-78242619D01*
X107383333Y-78195000D01*
X107478571Y-78147380D01*
X107716666Y-78147380D01*
X107859523Y-78195000D01*
X108192857Y-78480714D02*
X108383333Y-79147380D01*
X108573809Y-78671190D01*
X108764285Y-79147380D01*
X108954761Y-78480714D01*
X109859523Y-79147380D02*
X109288095Y-79147380D01*
X109573809Y-79147380D02*
X109573809Y-78147380D01*
X109478571Y-78290238D01*
X109383333Y-78385476D01*
X109288095Y-78433095D01*
X110764285Y-78147380D02*
X110288095Y-78147380D01*
X110240476Y-78623571D01*
X110288095Y-78575952D01*
X110383333Y-78528333D01*
X110621428Y-78528333D01*
X110716666Y-78575952D01*
X110764285Y-78623571D01*
X110811904Y-78718809D01*
X110811904Y-78956904D01*
X110764285Y-79052142D01*
X110716666Y-79099761D01*
X110621428Y-79147380D01*
X110383333Y-79147380D01*
X110288095Y-79099761D01*
X110240476Y-79052142D01*
%TO.C,J5*%
X16735466Y-121397780D02*
X16735466Y-122112066D01*
X16687847Y-122254923D01*
X16592609Y-122350161D01*
X16449752Y-122397780D01*
X16354514Y-122397780D01*
X17687847Y-121397780D02*
X17211657Y-121397780D01*
X17164038Y-121873971D01*
X17211657Y-121826352D01*
X17306895Y-121778733D01*
X17544990Y-121778733D01*
X17640228Y-121826352D01*
X17687847Y-121873971D01*
X17735466Y-121969209D01*
X17735466Y-122207304D01*
X17687847Y-122302542D01*
X17640228Y-122350161D01*
X17544990Y-122397780D01*
X17306895Y-122397780D01*
X17211657Y-122350161D01*
X17164038Y-122302542D01*
%TO.C,*%
%TO.C,D20*%
X141686114Y-128116980D02*
X141686114Y-127116980D01*
X141924209Y-127116980D01*
X142067066Y-127164600D01*
X142162304Y-127259838D01*
X142209923Y-127355076D01*
X142257542Y-127545552D01*
X142257542Y-127688409D01*
X142209923Y-127878885D01*
X142162304Y-127974123D01*
X142067066Y-128069361D01*
X141924209Y-128116980D01*
X141686114Y-128116980D01*
X142638495Y-127212219D02*
X142686114Y-127164600D01*
X142781352Y-127116980D01*
X143019447Y-127116980D01*
X143114685Y-127164600D01*
X143162304Y-127212219D01*
X143209923Y-127307457D01*
X143209923Y-127402695D01*
X143162304Y-127545552D01*
X142590876Y-128116980D01*
X143209923Y-128116980D01*
X143828971Y-127116980D02*
X143924209Y-127116980D01*
X144019447Y-127164600D01*
X144067066Y-127212219D01*
X144114685Y-127307457D01*
X144162304Y-127497933D01*
X144162304Y-127736028D01*
X144114685Y-127926504D01*
X144067066Y-128021742D01*
X144019447Y-128069361D01*
X143924209Y-128116980D01*
X143828971Y-128116980D01*
X143733733Y-128069361D01*
X143686114Y-128021742D01*
X143638495Y-127926504D01*
X143590876Y-127736028D01*
X143590876Y-127497933D01*
X143638495Y-127307457D01*
X143686114Y-127212219D01*
X143733733Y-127164600D01*
X143828971Y-127116980D01*
%TO.C,U2*%
X15102380Y-98786904D02*
X15911904Y-98786904D01*
X16007142Y-98739285D01*
X16054761Y-98691666D01*
X16102380Y-98596428D01*
X16102380Y-98405952D01*
X16054761Y-98310714D01*
X16007142Y-98263095D01*
X15911904Y-98215476D01*
X15102380Y-98215476D01*
X15197619Y-97786904D02*
X15150000Y-97739285D01*
X15102380Y-97644047D01*
X15102380Y-97405952D01*
X15150000Y-97310714D01*
X15197619Y-97263095D01*
X15292857Y-97215476D01*
X15388095Y-97215476D01*
X15530952Y-97263095D01*
X16102380Y-97834523D01*
X16102380Y-97215476D01*
%TO.C,C15*%
X39282142Y-95832142D02*
X39234523Y-95879761D01*
X39091666Y-95927380D01*
X38996428Y-95927380D01*
X38853571Y-95879761D01*
X38758333Y-95784523D01*
X38710714Y-95689285D01*
X38663095Y-95498809D01*
X38663095Y-95355952D01*
X38710714Y-95165476D01*
X38758333Y-95070238D01*
X38853571Y-94975000D01*
X38996428Y-94927380D01*
X39091666Y-94927380D01*
X39234523Y-94975000D01*
X39282142Y-95022619D01*
X40234523Y-95927380D02*
X39663095Y-95927380D01*
X39948809Y-95927380D02*
X39948809Y-94927380D01*
X39853571Y-95070238D01*
X39758333Y-95165476D01*
X39663095Y-95213095D01*
X41139285Y-94927380D02*
X40663095Y-94927380D01*
X40615476Y-95403571D01*
X40663095Y-95355952D01*
X40758333Y-95308333D01*
X40996428Y-95308333D01*
X41091666Y-95355952D01*
X41139285Y-95403571D01*
X41186904Y-95498809D01*
X41186904Y-95736904D01*
X41139285Y-95832142D01*
X41091666Y-95879761D01*
X40996428Y-95927380D01*
X40758333Y-95927380D01*
X40663095Y-95879761D01*
X40615476Y-95832142D01*
%TO.C,*%
%TO.C,U1*%
X51838095Y-77952380D02*
X51838095Y-78761904D01*
X51885714Y-78857142D01*
X51933333Y-78904761D01*
X52028571Y-78952380D01*
X52219047Y-78952380D01*
X52314285Y-78904761D01*
X52361904Y-78857142D01*
X52409523Y-78761904D01*
X52409523Y-77952380D01*
X53409523Y-78952380D02*
X52838095Y-78952380D01*
X53123809Y-78952380D02*
X53123809Y-77952380D01*
X53028571Y-78095238D01*
X52933333Y-78190476D01*
X52838095Y-78238095D01*
%TO.C,J2*%
X24914266Y-77379580D02*
X24914266Y-78093866D01*
X24866647Y-78236723D01*
X24771409Y-78331961D01*
X24628552Y-78379580D01*
X24533314Y-78379580D01*
X25342838Y-77474819D02*
X25390457Y-77427200D01*
X25485695Y-77379580D01*
X25723790Y-77379580D01*
X25819028Y-77427200D01*
X25866647Y-77474819D01*
X25914266Y-77570057D01*
X25914266Y-77665295D01*
X25866647Y-77808152D01*
X25295219Y-78379580D01*
X25914266Y-78379580D01*
%TO.C,Sw10*%
X88238095Y-111199761D02*
X88380952Y-111247380D01*
X88619047Y-111247380D01*
X88714285Y-111199761D01*
X88761904Y-111152142D01*
X88809523Y-111056904D01*
X88809523Y-110961666D01*
X88761904Y-110866428D01*
X88714285Y-110818809D01*
X88619047Y-110771190D01*
X88428571Y-110723571D01*
X88333333Y-110675952D01*
X88285714Y-110628333D01*
X88238095Y-110533095D01*
X88238095Y-110437857D01*
X88285714Y-110342619D01*
X88333333Y-110295000D01*
X88428571Y-110247380D01*
X88666666Y-110247380D01*
X88809523Y-110295000D01*
X89142857Y-110580714D02*
X89333333Y-111247380D01*
X89523809Y-110771190D01*
X89714285Y-111247380D01*
X89904761Y-110580714D01*
X90809523Y-111247380D02*
X90238095Y-111247380D01*
X90523809Y-111247380D02*
X90523809Y-110247380D01*
X90428571Y-110390238D01*
X90333333Y-110485476D01*
X90238095Y-110533095D01*
X91428571Y-110247380D02*
X91523809Y-110247380D01*
X91619047Y-110295000D01*
X91666666Y-110342619D01*
X91714285Y-110437857D01*
X91761904Y-110628333D01*
X91761904Y-110866428D01*
X91714285Y-111056904D01*
X91666666Y-111152142D01*
X91619047Y-111199761D01*
X91523809Y-111247380D01*
X91428571Y-111247380D01*
X91333333Y-111199761D01*
X91285714Y-111152142D01*
X91238095Y-111056904D01*
X91190476Y-110866428D01*
X91190476Y-110628333D01*
X91238095Y-110437857D01*
X91285714Y-110342619D01*
X91333333Y-110295000D01*
X91428571Y-110247380D01*
%TO.C,Sw5*%
X50614285Y-106149761D02*
X50757142Y-106197380D01*
X50995238Y-106197380D01*
X51090476Y-106149761D01*
X51138095Y-106102142D01*
X51185714Y-106006904D01*
X51185714Y-105911666D01*
X51138095Y-105816428D01*
X51090476Y-105768809D01*
X50995238Y-105721190D01*
X50804761Y-105673571D01*
X50709523Y-105625952D01*
X50661904Y-105578333D01*
X50614285Y-105483095D01*
X50614285Y-105387857D01*
X50661904Y-105292619D01*
X50709523Y-105245000D01*
X50804761Y-105197380D01*
X51042857Y-105197380D01*
X51185714Y-105245000D01*
X51519047Y-105530714D02*
X51709523Y-106197380D01*
X51900000Y-105721190D01*
X52090476Y-106197380D01*
X52280952Y-105530714D01*
X53138095Y-105197380D02*
X52661904Y-105197380D01*
X52614285Y-105673571D01*
X52661904Y-105625952D01*
X52757142Y-105578333D01*
X52995238Y-105578333D01*
X53090476Y-105625952D01*
X53138095Y-105673571D01*
X53185714Y-105768809D01*
X53185714Y-106006904D01*
X53138095Y-106102142D01*
X53090476Y-106149761D01*
X52995238Y-106197380D01*
X52757142Y-106197380D01*
X52661904Y-106149761D01*
X52614285Y-106102142D01*
%TO.C,D6*%
X42052380Y-113363095D02*
X41052380Y-113363095D01*
X41052380Y-113125000D01*
X41100000Y-112982142D01*
X41195238Y-112886904D01*
X41290476Y-112839285D01*
X41480952Y-112791666D01*
X41623809Y-112791666D01*
X41814285Y-112839285D01*
X41909523Y-112886904D01*
X42004761Y-112982142D01*
X42052380Y-113125000D01*
X42052380Y-113363095D01*
X41052380Y-111934523D02*
X41052380Y-112125000D01*
X41100000Y-112220238D01*
X41147619Y-112267857D01*
X41290476Y-112363095D01*
X41480952Y-112410714D01*
X41861904Y-112410714D01*
X41957142Y-112363095D01*
X42004761Y-112315476D01*
X42052380Y-112220238D01*
X42052380Y-112029761D01*
X42004761Y-111934523D01*
X41957142Y-111886904D01*
X41861904Y-111839285D01*
X41623809Y-111839285D01*
X41528571Y-111886904D01*
X41480952Y-111934523D01*
X41433333Y-112029761D01*
X41433333Y-112220238D01*
X41480952Y-112315476D01*
X41528571Y-112363095D01*
X41623809Y-112410714D01*
%TO.C,*%
%TO.C,Sw18*%
X126338095Y-92149761D02*
X126480952Y-92197380D01*
X126719047Y-92197380D01*
X126814285Y-92149761D01*
X126861904Y-92102142D01*
X126909523Y-92006904D01*
X126909523Y-91911666D01*
X126861904Y-91816428D01*
X126814285Y-91768809D01*
X126719047Y-91721190D01*
X126528571Y-91673571D01*
X126433333Y-91625952D01*
X126385714Y-91578333D01*
X126338095Y-91483095D01*
X126338095Y-91387857D01*
X126385714Y-91292619D01*
X126433333Y-91245000D01*
X126528571Y-91197380D01*
X126766666Y-91197380D01*
X126909523Y-91245000D01*
X127242857Y-91530714D02*
X127433333Y-92197380D01*
X127623809Y-91721190D01*
X127814285Y-92197380D01*
X128004761Y-91530714D01*
X128909523Y-92197380D02*
X128338095Y-92197380D01*
X128623809Y-92197380D02*
X128623809Y-91197380D01*
X128528571Y-91340238D01*
X128433333Y-91435476D01*
X128338095Y-91483095D01*
X129480952Y-91625952D02*
X129385714Y-91578333D01*
X129338095Y-91530714D01*
X129290476Y-91435476D01*
X129290476Y-91387857D01*
X129338095Y-91292619D01*
X129385714Y-91245000D01*
X129480952Y-91197380D01*
X129671428Y-91197380D01*
X129766666Y-91245000D01*
X129814285Y-91292619D01*
X129861904Y-91387857D01*
X129861904Y-91435476D01*
X129814285Y-91530714D01*
X129766666Y-91578333D01*
X129671428Y-91625952D01*
X129480952Y-91625952D01*
X129385714Y-91673571D01*
X129338095Y-91721190D01*
X129290476Y-91816428D01*
X129290476Y-92006904D01*
X129338095Y-92102142D01*
X129385714Y-92149761D01*
X129480952Y-92197380D01*
X129671428Y-92197380D01*
X129766666Y-92149761D01*
X129814285Y-92102142D01*
X129861904Y-92006904D01*
X129861904Y-91816428D01*
X129814285Y-91721190D01*
X129766666Y-91673571D01*
X129671428Y-91625952D01*
%TO.C,D5*%
X41902380Y-132263095D02*
X40902380Y-132263095D01*
X40902380Y-132025000D01*
X40950000Y-131882142D01*
X41045238Y-131786904D01*
X41140476Y-131739285D01*
X41330952Y-131691666D01*
X41473809Y-131691666D01*
X41664285Y-131739285D01*
X41759523Y-131786904D01*
X41854761Y-131882142D01*
X41902380Y-132025000D01*
X41902380Y-132263095D01*
X40902380Y-130786904D02*
X40902380Y-131263095D01*
X41378571Y-131310714D01*
X41330952Y-131263095D01*
X41283333Y-131167857D01*
X41283333Y-130929761D01*
X41330952Y-130834523D01*
X41378571Y-130786904D01*
X41473809Y-130739285D01*
X41711904Y-130739285D01*
X41807142Y-130786904D01*
X41854761Y-130834523D01*
X41902380Y-130929761D01*
X41902380Y-131167857D01*
X41854761Y-131263095D01*
X41807142Y-131310714D01*
%TO.C,C9*%
X28233333Y-92557142D02*
X28185714Y-92604761D01*
X28042857Y-92652380D01*
X27947619Y-92652380D01*
X27804761Y-92604761D01*
X27709523Y-92509523D01*
X27661904Y-92414285D01*
X27614285Y-92223809D01*
X27614285Y-92080952D01*
X27661904Y-91890476D01*
X27709523Y-91795238D01*
X27804761Y-91700000D01*
X27947619Y-91652380D01*
X28042857Y-91652380D01*
X28185714Y-91700000D01*
X28233333Y-91747619D01*
X28709523Y-92652380D02*
X28900000Y-92652380D01*
X28995238Y-92604761D01*
X29042857Y-92557142D01*
X29138095Y-92414285D01*
X29185714Y-92223809D01*
X29185714Y-91842857D01*
X29138095Y-91747619D01*
X29090476Y-91700000D01*
X28995238Y-91652380D01*
X28804761Y-91652380D01*
X28709523Y-91700000D01*
X28661904Y-91747619D01*
X28614285Y-91842857D01*
X28614285Y-92080952D01*
X28661904Y-92176190D01*
X28709523Y-92223809D01*
X28804761Y-92271428D01*
X28995238Y-92271428D01*
X29090476Y-92223809D01*
X29138095Y-92176190D01*
X29185714Y-92080952D01*
%TO.C,J1*%
X38591666Y-77302380D02*
X38591666Y-78016666D01*
X38544047Y-78159523D01*
X38448809Y-78254761D01*
X38305952Y-78302380D01*
X38210714Y-78302380D01*
X39591666Y-78302380D02*
X39020238Y-78302380D01*
X39305952Y-78302380D02*
X39305952Y-77302380D01*
X39210714Y-77445238D01*
X39115476Y-77540476D01*
X39020238Y-77588095D01*
%TO.C,D19*%
X118202380Y-99714285D02*
X117202380Y-99714285D01*
X117202380Y-99476190D01*
X117250000Y-99333333D01*
X117345238Y-99238095D01*
X117440476Y-99190476D01*
X117630952Y-99142857D01*
X117773809Y-99142857D01*
X117964285Y-99190476D01*
X118059523Y-99238095D01*
X118154761Y-99333333D01*
X118202380Y-99476190D01*
X118202380Y-99714285D01*
X118202380Y-98190476D02*
X118202380Y-98761904D01*
X118202380Y-98476190D02*
X117202380Y-98476190D01*
X117345238Y-98571428D01*
X117440476Y-98666666D01*
X117488095Y-98761904D01*
X118202380Y-97714285D02*
X118202380Y-97523809D01*
X118154761Y-97428571D01*
X118107142Y-97380952D01*
X117964285Y-97285714D01*
X117773809Y-97238095D01*
X117392857Y-97238095D01*
X117297619Y-97285714D01*
X117250000Y-97333333D01*
X117202380Y-97428571D01*
X117202380Y-97619047D01*
X117250000Y-97714285D01*
X117297619Y-97761904D01*
X117392857Y-97809523D01*
X117630952Y-97809523D01*
X117726190Y-97761904D01*
X117773809Y-97714285D01*
X117821428Y-97619047D01*
X117821428Y-97428571D01*
X117773809Y-97333333D01*
X117726190Y-97285714D01*
X117630952Y-97238095D01*
%TO.C,D7*%
X41852380Y-94163095D02*
X40852380Y-94163095D01*
X40852380Y-93925000D01*
X40900000Y-93782142D01*
X40995238Y-93686904D01*
X41090476Y-93639285D01*
X41280952Y-93591666D01*
X41423809Y-93591666D01*
X41614285Y-93639285D01*
X41709523Y-93686904D01*
X41804761Y-93782142D01*
X41852380Y-93925000D01*
X41852380Y-94163095D01*
X40852380Y-93258333D02*
X40852380Y-92591666D01*
X41852380Y-93020238D01*
%TO.C,C1*%
X43558333Y-84432142D02*
X43510714Y-84479761D01*
X43367857Y-84527380D01*
X43272619Y-84527380D01*
X43129761Y-84479761D01*
X43034523Y-84384523D01*
X42986904Y-84289285D01*
X42939285Y-84098809D01*
X42939285Y-83955952D01*
X42986904Y-83765476D01*
X43034523Y-83670238D01*
X43129761Y-83575000D01*
X43272619Y-83527380D01*
X43367857Y-83527380D01*
X43510714Y-83575000D01*
X43558333Y-83622619D01*
X44510714Y-84527380D02*
X43939285Y-84527380D01*
X44225000Y-84527380D02*
X44225000Y-83527380D01*
X44129761Y-83670238D01*
X44034523Y-83765476D01*
X43939285Y-83813095D01*
%TO.C,Sw16*%
X126338095Y-130249761D02*
X126480952Y-130297380D01*
X126719047Y-130297380D01*
X126814285Y-130249761D01*
X126861904Y-130202142D01*
X126909523Y-130106904D01*
X126909523Y-130011666D01*
X126861904Y-129916428D01*
X126814285Y-129868809D01*
X126719047Y-129821190D01*
X126528571Y-129773571D01*
X126433333Y-129725952D01*
X126385714Y-129678333D01*
X126338095Y-129583095D01*
X126338095Y-129487857D01*
X126385714Y-129392619D01*
X126433333Y-129345000D01*
X126528571Y-129297380D01*
X126766666Y-129297380D01*
X126909523Y-129345000D01*
X127242857Y-129630714D02*
X127433333Y-130297380D01*
X127623809Y-129821190D01*
X127814285Y-130297380D01*
X128004761Y-129630714D01*
X128909523Y-130297380D02*
X128338095Y-130297380D01*
X128623809Y-130297380D02*
X128623809Y-129297380D01*
X128528571Y-129440238D01*
X128433333Y-129535476D01*
X128338095Y-129583095D01*
X129766666Y-129297380D02*
X129576190Y-129297380D01*
X129480952Y-129345000D01*
X129433333Y-129392619D01*
X129338095Y-129535476D01*
X129290476Y-129725952D01*
X129290476Y-130106904D01*
X129338095Y-130202142D01*
X129385714Y-130249761D01*
X129480952Y-130297380D01*
X129671428Y-130297380D01*
X129766666Y-130249761D01*
X129814285Y-130202142D01*
X129861904Y-130106904D01*
X129861904Y-129868809D01*
X129814285Y-129773571D01*
X129766666Y-129725952D01*
X129671428Y-129678333D01*
X129480952Y-129678333D01*
X129385714Y-129725952D01*
X129338095Y-129773571D01*
X129290476Y-129868809D01*
%TO.C,C10*%
X39382142Y-97357142D02*
X39334523Y-97404761D01*
X39191666Y-97452380D01*
X39096428Y-97452380D01*
X38953571Y-97404761D01*
X38858333Y-97309523D01*
X38810714Y-97214285D01*
X38763095Y-97023809D01*
X38763095Y-96880952D01*
X38810714Y-96690476D01*
X38858333Y-96595238D01*
X38953571Y-96500000D01*
X39096428Y-96452380D01*
X39191666Y-96452380D01*
X39334523Y-96500000D01*
X39382142Y-96547619D01*
X40334523Y-97452380D02*
X39763095Y-97452380D01*
X40048809Y-97452380D02*
X40048809Y-96452380D01*
X39953571Y-96595238D01*
X39858333Y-96690476D01*
X39763095Y-96738095D01*
X40953571Y-96452380D02*
X41048809Y-96452380D01*
X41144047Y-96500000D01*
X41191666Y-96547619D01*
X41239285Y-96642857D01*
X41286904Y-96833333D01*
X41286904Y-97071428D01*
X41239285Y-97261904D01*
X41191666Y-97357142D01*
X41144047Y-97404761D01*
X41048809Y-97452380D01*
X40953571Y-97452380D01*
X40858333Y-97404761D01*
X40810714Y-97357142D01*
X40763095Y-97261904D01*
X40715476Y-97071428D01*
X40715476Y-96833333D01*
X40763095Y-96642857D01*
X40810714Y-96547619D01*
X40858333Y-96500000D01*
X40953571Y-96452380D01*
%TO.C,C8*%
X31558333Y-106607142D02*
X31510714Y-106654761D01*
X31367857Y-106702380D01*
X31272619Y-106702380D01*
X31129761Y-106654761D01*
X31034523Y-106559523D01*
X30986904Y-106464285D01*
X30939285Y-106273809D01*
X30939285Y-106130952D01*
X30986904Y-105940476D01*
X31034523Y-105845238D01*
X31129761Y-105750000D01*
X31272619Y-105702380D01*
X31367857Y-105702380D01*
X31510714Y-105750000D01*
X31558333Y-105797619D01*
X32129761Y-106130952D02*
X32034523Y-106083333D01*
X31986904Y-106035714D01*
X31939285Y-105940476D01*
X31939285Y-105892857D01*
X31986904Y-105797619D01*
X32034523Y-105750000D01*
X32129761Y-105702380D01*
X32320238Y-105702380D01*
X32415476Y-105750000D01*
X32463095Y-105797619D01*
X32510714Y-105892857D01*
X32510714Y-105940476D01*
X32463095Y-106035714D01*
X32415476Y-106083333D01*
X32320238Y-106130952D01*
X32129761Y-106130952D01*
X32034523Y-106178571D01*
X31986904Y-106226190D01*
X31939285Y-106321428D01*
X31939285Y-106511904D01*
X31986904Y-106607142D01*
X32034523Y-106654761D01*
X32129761Y-106702380D01*
X32320238Y-106702380D01*
X32415476Y-106654761D01*
X32463095Y-106607142D01*
X32510714Y-106511904D01*
X32510714Y-106321428D01*
X32463095Y-106226190D01*
X32415476Y-106178571D01*
X32320238Y-106130952D01*
%TO.C,*%
D12*
%TO.C,D2*%
X27675000Y-147350000D02*
X30825000Y-147350000D01*
X27675000Y-145650000D02*
X27675000Y-147350000D01*
X27675000Y-145650000D02*
X30825000Y-145650000D01*
%TO.C,C3*%
X28809420Y-89215000D02*
X29090580Y-89215000D01*
X28809420Y-90235000D02*
X29090580Y-90235000D01*
%TO.C,U3*%
X34032200Y-97153360D02*
X34032200Y-96542800D01*
X26767800Y-96542800D02*
X26767800Y-97153360D01*
X34032200Y-103807200D02*
X34032200Y-103196640D01*
X27378360Y-96542800D02*
X26767800Y-96542800D01*
X26767800Y-103196640D02*
X26767800Y-103807200D01*
X33421640Y-103807200D02*
X34032200Y-103807200D01*
X26767800Y-103807200D02*
X27378360Y-103807200D01*
X34032200Y-96542800D02*
X33421640Y-96542800D01*
G36*
X34718000Y-102565501D02*
G01*
X34464000Y-102565501D01*
X34464000Y-102184501D01*
X34718000Y-102184501D01*
X34718000Y-102565501D01*
G37*
D13*
X34718000Y-102565501D02*
X34464000Y-102565501D01*
X34464000Y-102184501D01*
X34718000Y-102184501D01*
X34718000Y-102565501D01*
G36*
X30390500Y-96111000D02*
G01*
X30009500Y-96111000D01*
X30009500Y-95857000D01*
X30390500Y-95857000D01*
X30390500Y-96111000D01*
G37*
X30390500Y-96111000D02*
X30009500Y-96111000D01*
X30009500Y-95857000D01*
X30390500Y-95857000D01*
X30390500Y-96111000D01*
G36*
X29990501Y-104493000D02*
G01*
X29609501Y-104493000D01*
X29609501Y-104239000D01*
X29990501Y-104239000D01*
X29990501Y-104493000D01*
G37*
X29990501Y-104493000D02*
X29609501Y-104493000D01*
X29609501Y-104239000D01*
X29990501Y-104239000D01*
X29990501Y-104493000D01*
G36*
X34718000Y-98565501D02*
G01*
X34464000Y-98565501D01*
X34464000Y-98184501D01*
X34718000Y-98184501D01*
X34718000Y-98565501D01*
G37*
X34718000Y-98565501D02*
X34464000Y-98565501D01*
X34464000Y-98184501D01*
X34718000Y-98184501D01*
X34718000Y-98565501D01*
G36*
X26336000Y-101365501D02*
G01*
X26082000Y-101365501D01*
X26082000Y-100984501D01*
X26336000Y-100984501D01*
X26336000Y-101365501D01*
G37*
X26336000Y-101365501D02*
X26082000Y-101365501D01*
X26082000Y-100984501D01*
X26336000Y-100984501D01*
X26336000Y-101365501D01*
D10*
%TO.C,Sw14*%
X116050000Y-112000000D02*
X116050000Y-113000000D01*
X116050000Y-113000000D02*
X115050000Y-113000000D01*
X116050000Y-99000000D02*
X116050000Y-100000000D01*
X102050000Y-99000000D02*
X103050000Y-99000000D01*
X102050000Y-113000000D02*
X102050000Y-112000000D01*
X102050000Y-100000000D02*
X102050000Y-99000000D01*
X115050000Y-99000000D02*
X116050000Y-99000000D01*
X103050000Y-113000000D02*
X102050000Y-113000000D01*
D12*
X99525000Y-96475000D02*
X118575000Y-96475000D01*
X118575000Y-96475000D02*
X118575000Y-115525000D01*
X118575000Y-115525000D02*
X99525000Y-115525000D01*
X99525000Y-115525000D02*
X99525000Y-96475000D01*
D10*
%TO.C,Sw7*%
X77950000Y-133050000D02*
X77950000Y-134050000D01*
X77950000Y-134050000D02*
X76950000Y-134050000D01*
X63950000Y-121050000D02*
X63950000Y-120050000D01*
X76950000Y-120050000D02*
X77950000Y-120050000D01*
X63950000Y-134050000D02*
X63950000Y-133050000D01*
X77950000Y-120050000D02*
X77950000Y-121050000D01*
X63950000Y-120050000D02*
X64950000Y-120050000D01*
X64950000Y-134050000D02*
X63950000Y-134050000D01*
D12*
X61425000Y-117525000D02*
X80475000Y-117525000D01*
X80475000Y-117525000D02*
X80475000Y-136575000D01*
X80475000Y-136575000D02*
X61425000Y-136575000D01*
X61425000Y-136575000D02*
X61425000Y-117525000D01*
%TO.C,R3*%
X41747500Y-81987742D02*
X41747500Y-82462258D01*
X40702500Y-81987742D02*
X40702500Y-82462258D01*
%TO.C,C4*%
X34759420Y-114015000D02*
X35040580Y-114015000D01*
X34759420Y-115035000D02*
X35040580Y-115035000D01*
%TO.C,D3*%
X46425000Y-144400000D02*
X49575000Y-144400000D01*
X46425000Y-142700000D02*
X46425000Y-144400000D01*
X46425000Y-142700000D02*
X49575000Y-142700000D01*
D10*
%TO.C,Sw3*%
X63950000Y-142100000D02*
X64950000Y-142100000D01*
X77950000Y-142100000D02*
X77950000Y-143100000D01*
X63950000Y-156100000D02*
X63950000Y-155100000D01*
X76950000Y-142100000D02*
X77950000Y-142100000D01*
X77950000Y-156100000D02*
X76950000Y-156100000D01*
X77950000Y-155100000D02*
X77950000Y-156100000D01*
X64950000Y-156100000D02*
X63950000Y-156100000D01*
X63950000Y-143100000D02*
X63950000Y-142100000D01*
D12*
X61425000Y-139575000D02*
X80475000Y-139575000D01*
X80475000Y-139575000D02*
X80475000Y-158625000D01*
X80475000Y-158625000D02*
X61425000Y-158625000D01*
X61425000Y-158625000D02*
X61425000Y-139575000D01*
%TO.C,R7*%
X31772500Y-92454724D02*
X31772500Y-91945276D01*
X30727500Y-92454724D02*
X30727500Y-91945276D01*
%TO.C,D8*%
X61500000Y-127475000D02*
X63200000Y-127475000D01*
X61500000Y-127475000D02*
X61500000Y-124325000D01*
X63200000Y-127475000D02*
X63200000Y-124325000D01*
%TO.C,R6*%
X31187742Y-109847500D02*
X31662258Y-109847500D01*
X31187742Y-108802500D02*
X31662258Y-108802500D01*
D10*
%TO.C,Sw6*%
X44900000Y-101950000D02*
X44900000Y-100950000D01*
X58900000Y-101950000D02*
X57900000Y-101950000D01*
X58900000Y-100950000D02*
X58900000Y-101950000D01*
X44900000Y-88950000D02*
X44900000Y-87950000D01*
X45900000Y-101950000D02*
X44900000Y-101950000D01*
X44900000Y-87950000D02*
X45900000Y-87950000D01*
X57900000Y-87950000D02*
X58900000Y-87950000D01*
X58900000Y-87950000D02*
X58900000Y-88950000D01*
D12*
X42375000Y-85425000D02*
X61425000Y-85425000D01*
X61425000Y-85425000D02*
X61425000Y-104475000D01*
X61425000Y-104475000D02*
X42375000Y-104475000D01*
X42375000Y-104475000D02*
X42375000Y-85425000D01*
D10*
%TO.C,Sw12*%
X97000000Y-87950000D02*
X96000000Y-87950000D01*
X97000000Y-86950000D02*
X97000000Y-87950000D01*
X84000000Y-87950000D02*
X83000000Y-87950000D01*
X83000000Y-73950000D02*
X84000000Y-73950000D01*
X83000000Y-87950000D02*
X83000000Y-86950000D01*
X83000000Y-74950000D02*
X83000000Y-73950000D01*
X96000000Y-73950000D02*
X97000000Y-73950000D01*
X97000000Y-73950000D02*
X97000000Y-74950000D01*
D12*
X80475000Y-71425000D02*
X99525000Y-71425000D01*
X99525000Y-71425000D02*
X99525000Y-90475000D01*
X99525000Y-90475000D02*
X80475000Y-90475000D01*
X80475000Y-90475000D02*
X80475000Y-71425000D01*
D10*
%TO.C,Sw17*%
X121100000Y-112050000D02*
X122100000Y-112050000D01*
X122100000Y-126050000D02*
X121100000Y-126050000D01*
X135100000Y-126050000D02*
X134100000Y-126050000D01*
X135100000Y-125050000D02*
X135100000Y-126050000D01*
X121100000Y-113050000D02*
X121100000Y-112050000D01*
X134100000Y-112050000D02*
X135100000Y-112050000D01*
X121100000Y-126050000D02*
X121100000Y-125050000D01*
X135100000Y-112050000D02*
X135100000Y-113050000D01*
D12*
X118575000Y-109525000D02*
X137625000Y-109525000D01*
X137625000Y-109525000D02*
X137625000Y-128575000D01*
X137625000Y-128575000D02*
X118575000Y-128575000D01*
X118575000Y-128575000D02*
X118575000Y-109525000D01*
%TO.C,R10*%
X41897500Y-112395276D02*
X41897500Y-112904724D01*
X40852500Y-112395276D02*
X40852500Y-112904724D01*
%TO.C,D9*%
X61500000Y-108425000D02*
X63200000Y-108425000D01*
X63200000Y-108425000D02*
X63200000Y-105275000D01*
X61500000Y-108425000D02*
X61500000Y-105275000D01*
%TO.C,D12*%
X80600000Y-100375000D02*
X82300000Y-100375000D01*
X82300000Y-100375000D02*
X82300000Y-97225000D01*
X80600000Y-100375000D02*
X80600000Y-97225000D01*
D10*
%TO.C,Sw8*%
X63950000Y-115000000D02*
X63950000Y-114000000D01*
X77950000Y-114000000D02*
X77950000Y-115000000D01*
X77950000Y-115000000D02*
X76950000Y-115000000D01*
X63950000Y-101000000D02*
X64950000Y-101000000D01*
X63950000Y-102000000D02*
X63950000Y-101000000D01*
X64950000Y-115000000D02*
X63950000Y-115000000D01*
X76950000Y-101000000D02*
X77950000Y-101000000D01*
X77950000Y-101000000D02*
X77950000Y-102000000D01*
D12*
X61425000Y-98475000D02*
X80475000Y-98475000D01*
X80475000Y-98475000D02*
X80475000Y-117525000D01*
X80475000Y-117525000D02*
X61425000Y-117525000D01*
X61425000Y-117525000D02*
X61425000Y-98475000D01*
D10*
%TO.C,Sw9*%
X77950000Y-95950000D02*
X76950000Y-95950000D01*
X63950000Y-82950000D02*
X63950000Y-81950000D01*
X76950000Y-81950000D02*
X77950000Y-81950000D01*
X64950000Y-95950000D02*
X63950000Y-95950000D01*
X63950000Y-81950000D02*
X64950000Y-81950000D01*
X77950000Y-94950000D02*
X77950000Y-95950000D01*
X63950000Y-95950000D02*
X63950000Y-94950000D01*
X77950000Y-81950000D02*
X77950000Y-82950000D01*
D12*
X61425000Y-79425000D02*
X80475000Y-79425000D01*
X80475000Y-79425000D02*
X80475000Y-98475000D01*
X80475000Y-98475000D02*
X61425000Y-98475000D01*
X61425000Y-98475000D02*
X61425000Y-79425000D01*
D10*
%TO.C,Sw20*%
X140150000Y-126050000D02*
X140150000Y-125050000D01*
X140150000Y-113050000D02*
X140150000Y-112050000D01*
X140150000Y-112050000D02*
X141150000Y-112050000D01*
X154150000Y-112050000D02*
X154150000Y-113050000D01*
X141150000Y-126050000D02*
X140150000Y-126050000D01*
X154150000Y-125050000D02*
X154150000Y-126050000D01*
X153150000Y-112050000D02*
X154150000Y-112050000D01*
X154150000Y-126050000D02*
X153150000Y-126050000D01*
D12*
X137625000Y-109525000D02*
X156675000Y-109525000D01*
X156675000Y-109525000D02*
X156675000Y-128575000D01*
X156675000Y-128575000D02*
X137625000Y-128575000D01*
X137625000Y-128575000D02*
X137625000Y-109525000D01*
%TO.C,J4*%
X36000000Y-137940000D02*
X36000000Y-122060000D01*
X40200000Y-122060000D02*
X40200000Y-137940000D01*
X36000000Y-137940000D02*
G75*
G03*
X40200000Y-137940000I2100000J0D01*
G01*
X40200000Y-122060000D02*
G75*
G03*
X36000000Y-122060000I-2100000J0D01*
G01*
X39700000Y-122040000D02*
G75*
G03*
X39700000Y-122040000I-1600000J0D01*
G01*
X39700000Y-137940000D02*
G75*
G03*
X39700000Y-137940000I-1600000J0D01*
G01*
D10*
%TO.C,Sw21*%
X140150000Y-107000000D02*
X140150000Y-106000000D01*
X140150000Y-94000000D02*
X140150000Y-93000000D01*
X141150000Y-107000000D02*
X140150000Y-107000000D01*
X154150000Y-106000000D02*
X154150000Y-107000000D01*
X154150000Y-93000000D02*
X154150000Y-94000000D01*
X153150000Y-93000000D02*
X154150000Y-93000000D01*
X140150000Y-93000000D02*
X141150000Y-93000000D01*
X154150000Y-107000000D02*
X153150000Y-107000000D01*
D12*
X137625000Y-90475000D02*
X156675000Y-90475000D01*
X156675000Y-90475000D02*
X156675000Y-109525000D01*
X156675000Y-109525000D02*
X137625000Y-109525000D01*
X137625000Y-109525000D02*
X137625000Y-90475000D01*
%TO.C,C13*%
X24735000Y-104441233D02*
X24735000Y-104733767D01*
X23715000Y-104441233D02*
X23715000Y-104733767D01*
%TO.C,D1*%
X40310000Y-80752500D02*
X38840000Y-80752500D01*
X38840000Y-80752500D02*
X38840000Y-83037500D01*
X40310000Y-83037500D02*
X40310000Y-80752500D01*
%TO.C,R8*%
X32227500Y-92454724D02*
X32227500Y-91945276D01*
X33272500Y-92454724D02*
X33272500Y-91945276D01*
%TO.C,SW2*%
X34600000Y-119030000D02*
X34600000Y-119150000D01*
X39000000Y-118020000D02*
X39000000Y-116880000D01*
X39000000Y-115750000D02*
X34600000Y-115750000D01*
X39000000Y-119150000D02*
X39000000Y-119030000D01*
X34600000Y-116880000D02*
X34600000Y-118020000D01*
X34600000Y-119150000D02*
X39000000Y-119150000D01*
X39000000Y-115870000D02*
X39000000Y-115750000D01*
X34600000Y-115750000D02*
X34600000Y-115870000D01*
%TO.C,D21*%
X140873400Y-109589200D02*
X140873400Y-111289200D01*
X140873400Y-109589200D02*
X144023400Y-109589200D01*
X140873400Y-111289200D02*
X144023400Y-111289200D01*
%TO.C,R11*%
X43327500Y-101537258D02*
X43327500Y-101062742D01*
X44372500Y-101537258D02*
X44372500Y-101062742D01*
D10*
%TO.C,Sw11*%
X97000000Y-106000000D02*
X97000000Y-107000000D01*
X83000000Y-93000000D02*
X84000000Y-93000000D01*
X97000000Y-93000000D02*
X97000000Y-94000000D01*
X83000000Y-107000000D02*
X83000000Y-106000000D01*
X84000000Y-107000000D02*
X83000000Y-107000000D01*
X83000000Y-94000000D02*
X83000000Y-93000000D01*
X96000000Y-93000000D02*
X97000000Y-93000000D01*
X97000000Y-107000000D02*
X96000000Y-107000000D01*
D12*
X80475000Y-90475000D02*
X99525000Y-90475000D01*
X99525000Y-90475000D02*
X99525000Y-109525000D01*
X99525000Y-109525000D02*
X80475000Y-109525000D01*
X80475000Y-109525000D02*
X80475000Y-90475000D01*
%TO.C,D4*%
X65500000Y-139675000D02*
X68650000Y-139675000D01*
X65500000Y-141375000D02*
X68650000Y-141375000D01*
X65500000Y-139675000D02*
X65500000Y-141375000D01*
%TO.C,D10*%
X61500000Y-89350000D02*
X63200000Y-89350000D01*
X61500000Y-89350000D02*
X61500000Y-86200000D01*
X63200000Y-89350000D02*
X63200000Y-86200000D01*
%TO.C,SW1*%
X20800000Y-109275000D02*
X16400000Y-109275000D01*
X16400000Y-112675000D02*
X20800000Y-112675000D01*
X20800000Y-109395000D02*
X20800000Y-109275000D01*
X16400000Y-112555000D02*
X16400000Y-112675000D01*
X16400000Y-110405000D02*
X16400000Y-111545000D01*
X20800000Y-112675000D02*
X20800000Y-112555000D01*
X20800000Y-111545000D02*
X20800000Y-110405000D01*
X16400000Y-109275000D02*
X16400000Y-109395000D01*
%TO.C,C16*%
X36728733Y-94560000D02*
X37021267Y-94560000D01*
X36728733Y-93540000D02*
X37021267Y-93540000D01*
%TO.C,R5*%
X18012742Y-90827500D02*
X18487258Y-90827500D01*
X18012742Y-91872500D02*
X18487258Y-91872500D01*
%TO.C,D14*%
X99625000Y-125450000D02*
X101325000Y-125450000D01*
X99625000Y-125450000D02*
X99625000Y-122300000D01*
X101325000Y-125450000D02*
X101325000Y-122300000D01*
D10*
%TO.C,Sw2*%
X58900000Y-158100000D02*
X58900000Y-159100000D01*
X58900000Y-145100000D02*
X58900000Y-146100000D01*
X44900000Y-146100000D02*
X44900000Y-145100000D01*
X45900000Y-159100000D02*
X44900000Y-159100000D01*
X58900000Y-159100000D02*
X57900000Y-159100000D01*
X44900000Y-159100000D02*
X44900000Y-158100000D01*
X44900000Y-145100000D02*
X45900000Y-145100000D01*
X57900000Y-145100000D02*
X58900000Y-145100000D01*
D12*
X42375000Y-142575000D02*
X61425000Y-142575000D01*
X61425000Y-142575000D02*
X61425000Y-161625000D01*
X61425000Y-161625000D02*
X42375000Y-161625000D01*
X42375000Y-161625000D02*
X42375000Y-142575000D01*
D10*
%TO.C,Sw1*%
X38850000Y-148100000D02*
X39850000Y-148100000D01*
X25850000Y-162100000D02*
X25850000Y-161100000D01*
X39850000Y-148100000D02*
X39850000Y-149100000D01*
X26850000Y-162100000D02*
X25850000Y-162100000D01*
X39850000Y-162100000D02*
X38850000Y-162100000D01*
X25850000Y-148100000D02*
X26850000Y-148100000D01*
X25850000Y-149100000D02*
X25850000Y-148100000D01*
X39850000Y-161100000D02*
X39850000Y-162100000D01*
D12*
X23325000Y-145575000D02*
X42375000Y-145575000D01*
X42375000Y-145575000D02*
X42375000Y-164625000D01*
X42375000Y-164625000D02*
X23325000Y-164625000D01*
X23325000Y-164625000D02*
X23325000Y-145575000D01*
%TO.C,D16*%
X99600000Y-87325000D02*
X99600000Y-84175000D01*
X101300000Y-87325000D02*
X101300000Y-84175000D01*
X99600000Y-87325000D02*
X101300000Y-87325000D01*
%TO.C,D11*%
X80600000Y-119450000D02*
X82300000Y-119450000D01*
X80600000Y-119450000D02*
X80600000Y-116300000D01*
X82300000Y-119450000D02*
X82300000Y-116300000D01*
%TO.C,R9*%
X40752500Y-131245276D02*
X40752500Y-131754724D01*
X41797500Y-131245276D02*
X41797500Y-131754724D01*
%TO.C,D17*%
X118675000Y-138500000D02*
X118675000Y-135350000D01*
X120375000Y-138500000D02*
X120375000Y-135350000D01*
X118675000Y-138500000D02*
X120375000Y-138500000D01*
%TO.C,D18*%
X120400000Y-119450000D02*
X120400000Y-116300000D01*
X118700000Y-119450000D02*
X118700000Y-116300000D01*
X118700000Y-119450000D02*
X120400000Y-119450000D01*
%TO.C,D13*%
X80550000Y-81350000D02*
X80550000Y-78200000D01*
X80550000Y-81350000D02*
X82250000Y-81350000D01*
X82250000Y-81350000D02*
X82250000Y-78200000D01*
%TO.C,D15*%
X99650000Y-106450000D02*
X99650000Y-103300000D01*
X101350000Y-106450000D02*
X101350000Y-103300000D01*
X99650000Y-106450000D02*
X101350000Y-106450000D01*
%TO.C,C14*%
X23660000Y-96036267D02*
X23660000Y-95743733D01*
X24680000Y-96036267D02*
X24680000Y-95743733D01*
%TO.C,C5*%
X36284420Y-109835000D02*
X36565580Y-109835000D01*
X36284420Y-108815000D02*
X36565580Y-108815000D01*
D10*
%TO.C,Sw4*%
X58900000Y-126050000D02*
X58900000Y-127050000D01*
X44900000Y-127050000D02*
X44900000Y-126050000D01*
X44900000Y-140050000D02*
X44900000Y-139050000D01*
X58900000Y-139050000D02*
X58900000Y-140050000D01*
X58900000Y-140050000D02*
X57900000Y-140050000D01*
X57900000Y-126050000D02*
X58900000Y-126050000D01*
X44900000Y-126050000D02*
X45900000Y-126050000D01*
X45900000Y-140050000D02*
X44900000Y-140050000D01*
D12*
X42375000Y-123525000D02*
X61425000Y-123525000D01*
X61425000Y-123525000D02*
X61425000Y-142575000D01*
X61425000Y-142575000D02*
X42375000Y-142575000D01*
X42375000Y-142575000D02*
X42375000Y-123525000D01*
%TO.C,R4*%
X17872500Y-105037742D02*
X17872500Y-105512258D01*
X16827500Y-105037742D02*
X16827500Y-105512258D01*
%TO.C,Y1*%
X32925000Y-110375000D02*
X32925000Y-113675000D01*
X32925000Y-113675000D02*
X36925000Y-113675000D01*
D10*
%TO.C,Sw13*%
X102050000Y-132050000D02*
X102050000Y-131050000D01*
X115050000Y-118050000D02*
X116050000Y-118050000D01*
X116050000Y-132050000D02*
X115050000Y-132050000D01*
X116050000Y-131050000D02*
X116050000Y-132050000D01*
X102050000Y-118050000D02*
X103050000Y-118050000D01*
X103050000Y-132050000D02*
X102050000Y-132050000D01*
X116050000Y-118050000D02*
X116050000Y-119050000D01*
X102050000Y-119050000D02*
X102050000Y-118050000D01*
D12*
X99525000Y-115525000D02*
X118575000Y-115525000D01*
X118575000Y-115525000D02*
X118575000Y-134575000D01*
X118575000Y-134575000D02*
X99525000Y-134575000D01*
X99525000Y-134575000D02*
X99525000Y-115525000D01*
%TO.C,D22*%
X140263800Y-90640800D02*
X140263800Y-92340800D01*
X140263800Y-90640800D02*
X143413800Y-90640800D01*
X140263800Y-92340800D02*
X143413800Y-92340800D01*
D10*
%TO.C,Sw19*%
X140150000Y-132100000D02*
X140150000Y-131100000D01*
X154150000Y-144100000D02*
X154150000Y-145100000D01*
X153150000Y-131100000D02*
X154150000Y-131100000D01*
X140150000Y-145100000D02*
X140150000Y-144100000D01*
X154150000Y-131100000D02*
X154150000Y-132100000D01*
X154150000Y-145100000D02*
X153150000Y-145100000D01*
X141150000Y-145100000D02*
X140150000Y-145100000D01*
X140150000Y-131100000D02*
X141150000Y-131100000D01*
D12*
X137625000Y-128575000D02*
X156675000Y-128575000D01*
X156675000Y-128575000D02*
X156675000Y-147625000D01*
X156675000Y-147625000D02*
X137625000Y-147625000D01*
X137625000Y-147625000D02*
X137625000Y-128575000D01*
%TO.C,C6*%
X34785000Y-92346267D02*
X34785000Y-92053733D01*
X33765000Y-92346267D02*
X33765000Y-92053733D01*
%TO.C,C2*%
X54365000Y-79265580D02*
X54365000Y-78984420D01*
X55385000Y-79265580D02*
X55385000Y-78984420D01*
%TO.C,C12*%
X34328733Y-107190000D02*
X34621267Y-107190000D01*
X34328733Y-108210000D02*
X34621267Y-108210000D01*
%TO.C,C11*%
X41960000Y-103228733D02*
X41960000Y-103521267D01*
X40940000Y-103228733D02*
X40940000Y-103521267D01*
D10*
%TO.C,Sw15*%
X102050000Y-79950000D02*
X103050000Y-79950000D01*
X115050000Y-79950000D02*
X116050000Y-79950000D01*
X116050000Y-92950000D02*
X116050000Y-93950000D01*
X116050000Y-79950000D02*
X116050000Y-80950000D01*
X116050000Y-93950000D02*
X115050000Y-93950000D01*
X102050000Y-93950000D02*
X102050000Y-92950000D01*
X102050000Y-80950000D02*
X102050000Y-79950000D01*
X103050000Y-93950000D02*
X102050000Y-93950000D01*
D12*
X99525000Y-77425000D02*
X118575000Y-77425000D01*
X118575000Y-77425000D02*
X118575000Y-96475000D01*
X118575000Y-96475000D02*
X99525000Y-96475000D01*
X99525000Y-96475000D02*
X99525000Y-77425000D01*
%TO.C,J5*%
X18220000Y-137940000D02*
X18220000Y-122060000D01*
X22420000Y-122060000D02*
X22420000Y-137940000D01*
X18220000Y-137940000D02*
G75*
G03*
X22420000Y-137940000I2100000J0D01*
G01*
X22420000Y-122060000D02*
G75*
G03*
X18220000Y-122060000I-2100000J0D01*
G01*
X21920000Y-122040000D02*
G75*
G03*
X21920000Y-122040000I-1600000J0D01*
G01*
X21920000Y-137940000D02*
G75*
G03*
X21920000Y-137940000I-1600000J0D01*
G01*
%TO.C,D20*%
X141000400Y-130364600D02*
X144150400Y-130364600D01*
X141000400Y-128664600D02*
X141000400Y-130364600D01*
X141000400Y-128664600D02*
X144150400Y-128664600D01*
%TO.C,U2*%
X16500000Y-95350000D02*
X16760000Y-95350000D01*
X16500000Y-100800000D02*
X16760000Y-100800000D01*
X21950000Y-98075000D02*
X21950000Y-100800000D01*
X16500000Y-98075000D02*
X16500000Y-95350000D01*
X16500000Y-98075000D02*
X16500000Y-100800000D01*
X16760000Y-100800000D02*
X16760000Y-102475000D01*
X21950000Y-95350000D02*
X21690000Y-95350000D01*
X21950000Y-100800000D02*
X21690000Y-100800000D01*
X21950000Y-98075000D02*
X21950000Y-95350000D01*
%TO.C,C15*%
X36703733Y-95065000D02*
X36996267Y-95065000D01*
X36703733Y-96085000D02*
X36996267Y-96085000D01*
%TO.C,U1*%
X51235000Y-77965000D02*
X51235000Y-79225000D01*
X51235000Y-84785000D02*
X51235000Y-83525000D01*
X45225000Y-77965000D02*
X51235000Y-77965000D01*
X47475000Y-84785000D02*
X51235000Y-84785000D01*
%TO.C,J2*%
X24200000Y-86425000D02*
X25600000Y-86425000D01*
X24200000Y-77000000D02*
X24200000Y-79375000D01*
X24200000Y-87975000D02*
X25600000Y-87975000D01*
X18000000Y-87525000D02*
X18000000Y-77000000D01*
X18000000Y-89100000D02*
X24200000Y-89100000D01*
X18600000Y-77000000D02*
X18000000Y-77000000D01*
X18600000Y-77000000D02*
X18600000Y-75000000D01*
X24200000Y-81025000D02*
X24200000Y-82375000D01*
X24200000Y-77000000D02*
X23600000Y-77000000D01*
X24200000Y-87975000D02*
X24200000Y-89100000D01*
X23600000Y-75000000D02*
X18600000Y-75000000D01*
X23600000Y-77000000D02*
X23600000Y-75000000D01*
X24200000Y-84025000D02*
X24200000Y-86425000D01*
D10*
%TO.C,Sw10*%
X83000000Y-126050000D02*
X83000000Y-125050000D01*
X97000000Y-126050000D02*
X96000000Y-126050000D01*
X83000000Y-112050000D02*
X84000000Y-112050000D01*
X84000000Y-126050000D02*
X83000000Y-126050000D01*
X97000000Y-125050000D02*
X97000000Y-126050000D01*
X96000000Y-112050000D02*
X97000000Y-112050000D01*
X97000000Y-112050000D02*
X97000000Y-113050000D01*
X83000000Y-113050000D02*
X83000000Y-112050000D01*
D12*
X80475000Y-109525000D02*
X99525000Y-109525000D01*
X99525000Y-109525000D02*
X99525000Y-128575000D01*
X99525000Y-128575000D02*
X80475000Y-128575000D01*
X80475000Y-128575000D02*
X80475000Y-109525000D01*
D10*
%TO.C,Sw5*%
X58900000Y-121000000D02*
X57900000Y-121000000D01*
X44900000Y-121000000D02*
X44900000Y-120000000D01*
X44900000Y-108000000D02*
X44900000Y-107000000D01*
X57900000Y-107000000D02*
X58900000Y-107000000D01*
X58900000Y-120000000D02*
X58900000Y-121000000D01*
X44900000Y-107000000D02*
X45900000Y-107000000D01*
X45900000Y-121000000D02*
X44900000Y-121000000D01*
X58900000Y-107000000D02*
X58900000Y-108000000D01*
D12*
X42375000Y-104475000D02*
X61425000Y-104475000D01*
X61425000Y-104475000D02*
X61425000Y-123525000D01*
X61425000Y-123525000D02*
X42375000Y-123525000D01*
X42375000Y-123525000D02*
X42375000Y-104475000D01*
%TO.C,D6*%
X42600000Y-114525000D02*
X44300000Y-114525000D01*
X44300000Y-114525000D02*
X44300000Y-111375000D01*
X42600000Y-114525000D02*
X42600000Y-111375000D01*
D10*
%TO.C,Sw18*%
X135100000Y-107000000D02*
X134100000Y-107000000D01*
X135100000Y-106000000D02*
X135100000Y-107000000D01*
X122100000Y-107000000D02*
X121100000Y-107000000D01*
X121100000Y-93000000D02*
X122100000Y-93000000D01*
X121100000Y-94000000D02*
X121100000Y-93000000D01*
X135100000Y-93000000D02*
X135100000Y-94000000D01*
X134100000Y-93000000D02*
X135100000Y-93000000D01*
X121100000Y-107000000D02*
X121100000Y-106000000D01*
D12*
X118575000Y-90475000D02*
X137625000Y-90475000D01*
X137625000Y-90475000D02*
X137625000Y-109525000D01*
X137625000Y-109525000D02*
X118575000Y-109525000D01*
X118575000Y-109525000D02*
X118575000Y-90475000D01*
%TO.C,D5*%
X42450000Y-133425000D02*
X44150000Y-133425000D01*
X42450000Y-133425000D02*
X42450000Y-130275000D01*
X44150000Y-133425000D02*
X44150000Y-130275000D01*
%TO.C,C9*%
X29265000Y-92346267D02*
X29265000Y-92053733D01*
X30285000Y-92346267D02*
X30285000Y-92053733D01*
%TO.C,J1*%
X37625000Y-76090000D02*
X28225000Y-76090000D01*
X37625000Y-81890000D02*
X37625000Y-79890000D01*
X37625000Y-77990000D02*
X37625000Y-76090000D01*
X28225000Y-81890000D02*
X28225000Y-79890000D01*
X28225000Y-77990000D02*
X28225000Y-76090000D01*
%TO.C,D19*%
X118750000Y-100400000D02*
X120450000Y-100400000D01*
X118750000Y-100400000D02*
X118750000Y-97250000D01*
X120450000Y-100400000D02*
X120450000Y-97250000D01*
%TO.C,D7*%
X44100000Y-95325000D02*
X44100000Y-92175000D01*
X42400000Y-95325000D02*
X44100000Y-95325000D01*
X42400000Y-95325000D02*
X42400000Y-92175000D01*
%TO.C,C1*%
X44260000Y-81915580D02*
X44260000Y-81634420D01*
X43240000Y-81915580D02*
X43240000Y-81634420D01*
D10*
%TO.C,Sw16*%
X121100000Y-145100000D02*
X121100000Y-144100000D01*
X134100000Y-131100000D02*
X135100000Y-131100000D01*
X135100000Y-144100000D02*
X135100000Y-145100000D01*
X135100000Y-131100000D02*
X135100000Y-132100000D01*
X135100000Y-145100000D02*
X134100000Y-145100000D01*
X121100000Y-132100000D02*
X121100000Y-131100000D01*
X121100000Y-131100000D02*
X122100000Y-131100000D01*
X122100000Y-145100000D02*
X121100000Y-145100000D01*
D12*
X118575000Y-128575000D02*
X137625000Y-128575000D01*
X137625000Y-128575000D02*
X137625000Y-147625000D01*
X137625000Y-147625000D02*
X118575000Y-147625000D01*
X118575000Y-147625000D02*
X118575000Y-128575000D01*
%TO.C,C10*%
X36691233Y-96565000D02*
X36983767Y-96565000D01*
X36691233Y-97585000D02*
X36983767Y-97585000D01*
%TO.C,C8*%
X34328733Y-105665000D02*
X34621267Y-105665000D01*
X34328733Y-106685000D02*
X34621267Y-106685000D01*
%TD*%
%LPC*%
D14*
%TO.C,D2*%
X28325000Y-146500000D03*
X30825000Y-146500000D03*
%TD*%
D15*
%TO.C,C3*%
X28175000Y-89725000D03*
X29725000Y-89725000D03*
%TD*%
D16*
%TO.C,U3*%
X26996400Y-97575000D03*
X26996400Y-97974999D03*
X26996400Y-98375001D03*
X26996400Y-98775000D03*
X26996400Y-99174999D03*
X26996400Y-99575001D03*
X26996400Y-99975000D03*
X26996400Y-100375000D03*
X26996400Y-100774999D03*
X26996400Y-101175001D03*
X26996400Y-101575000D03*
X26996400Y-101974999D03*
X26996400Y-102375001D03*
X26996400Y-102775000D03*
D17*
X27800000Y-103578600D03*
X28199999Y-103578600D03*
X28600001Y-103578600D03*
X29000000Y-103578600D03*
X29399999Y-103578600D03*
X29800001Y-103578600D03*
X30200000Y-103578600D03*
X30600000Y-103578600D03*
X30999999Y-103578600D03*
X31400001Y-103578600D03*
X31800000Y-103578600D03*
X32199999Y-103578600D03*
X32600001Y-103578600D03*
X33000000Y-103578600D03*
D16*
X33803600Y-102775000D03*
X33803600Y-102375001D03*
X33803600Y-101974999D03*
X33803600Y-101575000D03*
X33803600Y-101175001D03*
X33803600Y-100774999D03*
X33803600Y-100375000D03*
X33803600Y-99975000D03*
X33803600Y-99575001D03*
X33803600Y-99174999D03*
X33803600Y-98775000D03*
X33803600Y-98375001D03*
X33803600Y-97974999D03*
X33803600Y-97575000D03*
D17*
X33000000Y-96771400D03*
X32600001Y-96771400D03*
X32199999Y-96771400D03*
X31800000Y-96771400D03*
X31400001Y-96771400D03*
X30999999Y-96771400D03*
X30600000Y-96771400D03*
X30200000Y-96771400D03*
X29800001Y-96771400D03*
X29399999Y-96771400D03*
X29000000Y-96771400D03*
X28600001Y-96771400D03*
X28199999Y-96771400D03*
X27800000Y-96771400D03*
D18*
X30400000Y-100175000D03*
%TD*%
D19*
%TO.C,Sw14*%
X103970000Y-106000000D03*
D20*
X109050000Y-106000000D03*
D19*
X114130000Y-106000000D03*
D21*
X105240000Y-103460000D03*
X106510000Y-100920000D03*
X111590000Y-100920000D03*
X112860000Y-103460000D03*
%TD*%
D19*
%TO.C,Sw7*%
X65870000Y-127050000D03*
X76030000Y-127050000D03*
D20*
X70950000Y-127050000D03*
D21*
X68410000Y-121970000D03*
X67140000Y-124510000D03*
X74760000Y-124510000D03*
X73490000Y-121970000D03*
%TD*%
D22*
%TO.C,R3*%
X41225000Y-81400000D03*
X41225000Y-83050000D03*
%TD*%
D15*
%TO.C,C4*%
X34125000Y-114525000D03*
X35675000Y-114525000D03*
%TD*%
D14*
%TO.C,D3*%
X47075000Y-143550000D03*
X49575000Y-143550000D03*
%TD*%
D20*
%TO.C,Sw3*%
X70950000Y-149100000D03*
D19*
X76030000Y-149100000D03*
X65870000Y-149100000D03*
D21*
X68410000Y-144020000D03*
X67140000Y-146560000D03*
X74760000Y-146560000D03*
X73490000Y-144020000D03*
%TD*%
D23*
%TO.C,R7*%
X31250000Y-93112500D03*
X31250000Y-91287500D03*
%TD*%
D14*
%TO.C,D8*%
X62350000Y-126825000D03*
X62350000Y-124325000D03*
%TD*%
D24*
%TO.C,R6*%
X30600000Y-109325000D03*
X32250000Y-109325000D03*
%TD*%
D20*
%TO.C,Sw6*%
X51900000Y-94950000D03*
D19*
X46820000Y-94950000D03*
X56980000Y-94950000D03*
D21*
X49360000Y-89870000D03*
X48090000Y-92410000D03*
X54440000Y-89870000D03*
X55710000Y-92410000D03*
%TD*%
D20*
%TO.C,Sw12*%
X90000000Y-80950000D03*
D19*
X95080000Y-80950000D03*
X84920000Y-80950000D03*
D21*
X87460000Y-75870000D03*
X86190000Y-78410000D03*
X93810000Y-78410000D03*
X92540000Y-75870000D03*
%TD*%
D19*
%TO.C,Sw17*%
X123020000Y-119050000D03*
X133180000Y-119050000D03*
D20*
X128100000Y-119050000D03*
D21*
X124290000Y-116510000D03*
X125560000Y-113970000D03*
X131910000Y-116510000D03*
X130640000Y-113970000D03*
%TD*%
D25*
%TO.C,R10*%
X41375000Y-111737500D03*
X41375000Y-113562500D03*
%TD*%
D14*
%TO.C,D9*%
X62350000Y-107775000D03*
X62350000Y-105275000D03*
%TD*%
%TO.C,D12*%
X81450000Y-99725000D03*
X81450000Y-97225000D03*
%TD*%
D19*
%TO.C,Sw8*%
X65870000Y-108000000D03*
X76030000Y-108000000D03*
D20*
X70950000Y-108000000D03*
D21*
X67140000Y-105460000D03*
X68410000Y-102920000D03*
X73490000Y-102920000D03*
X74760000Y-105460000D03*
%TD*%
D26*
%TO.C,*%
X29210000Y-123000000D03*
%TD*%
D20*
%TO.C,Sw9*%
X70950000Y-88950000D03*
D19*
X65870000Y-88950000D03*
X76030000Y-88950000D03*
D21*
X68410000Y-83870000D03*
X67140000Y-86410000D03*
X73490000Y-83870000D03*
X74760000Y-86410000D03*
%TD*%
D20*
%TO.C,Sw20*%
X147150000Y-119050000D03*
D19*
X142070000Y-119050000D03*
X152230000Y-119050000D03*
D21*
X143340000Y-116510000D03*
X144610000Y-113970000D03*
X150960000Y-116510000D03*
X149690000Y-113970000D03*
%TD*%
D27*
%TO.C,J4*%
X38100000Y-124920000D03*
X38100000Y-127460000D03*
X38100000Y-130000000D03*
X38100000Y-132540000D03*
X38100000Y-135080000D03*
%TD*%
D19*
%TO.C,Sw21*%
X152230000Y-100000000D03*
D20*
X147150000Y-100000000D03*
D19*
X142070000Y-100000000D03*
D21*
X143340000Y-97460000D03*
X144610000Y-94920000D03*
X150960000Y-97460000D03*
X149690000Y-94920000D03*
%TD*%
D28*
%TO.C,C13*%
X24225000Y-103725000D03*
X24225000Y-105450000D03*
%TD*%
D26*
%TO.C,*%
X137625000Y-109525000D03*
%TD*%
D29*
%TO.C,D1*%
X39575000Y-81450000D03*
X39575000Y-83025000D03*
%TD*%
D23*
%TO.C,R8*%
X32750000Y-93112500D03*
X32750000Y-91287500D03*
%TD*%
D30*
%TO.C,SW2*%
X34725000Y-118525000D03*
X38875000Y-118525000D03*
X34725000Y-116375000D03*
X38875000Y-116375000D03*
%TD*%
D14*
%TO.C,D21*%
X141523400Y-110439200D03*
X144023400Y-110439200D03*
%TD*%
D31*
%TO.C,R11*%
X43850000Y-102125000D03*
X43850000Y-100475000D03*
%TD*%
D20*
%TO.C,Sw11*%
X90000000Y-100000000D03*
D19*
X84920000Y-100000000D03*
X95080000Y-100000000D03*
D21*
X86190000Y-97460000D03*
X87460000Y-94920000D03*
X92540000Y-94920000D03*
X93810000Y-97460000D03*
%TD*%
D14*
%TO.C,D4*%
X66150000Y-140525000D03*
X68650000Y-140525000D03*
%TD*%
%TO.C,D10*%
X62350000Y-88700000D03*
X62350000Y-86200000D03*
%TD*%
D30*
%TO.C,SW1*%
X16525000Y-112050000D03*
X20675000Y-112050000D03*
X16525000Y-109900000D03*
X20675000Y-109900000D03*
%TD*%
D32*
%TO.C,C16*%
X36012500Y-94050000D03*
X37737500Y-94050000D03*
%TD*%
D26*
%TO.C,*%
X61507800Y-142479400D03*
%TD*%
D24*
%TO.C,R5*%
X17425000Y-91350000D03*
X19075000Y-91350000D03*
%TD*%
D14*
%TO.C,D14*%
X100475000Y-124800000D03*
X100475000Y-122300000D03*
%TD*%
D19*
%TO.C,Sw2*%
X46820000Y-152100000D03*
X56980000Y-152100000D03*
D20*
X51900000Y-152100000D03*
D21*
X49360000Y-147020000D03*
X48090000Y-149560000D03*
X55710000Y-149560000D03*
X54440000Y-147020000D03*
%TD*%
D20*
%TO.C,Sw1*%
X32850000Y-155100000D03*
D19*
X27770000Y-155100000D03*
X37930000Y-155100000D03*
D21*
X30310000Y-150020000D03*
X29040000Y-152560000D03*
X35390000Y-150020000D03*
X36660000Y-152560000D03*
%TD*%
D26*
%TO.C,REF\u002A\u002A*%
X19000000Y-162000000D03*
%TD*%
D14*
%TO.C,D16*%
X100450000Y-86675000D03*
X100450000Y-84175000D03*
%TD*%
%TO.C,D11*%
X81450000Y-118800000D03*
X81450000Y-116300000D03*
%TD*%
D25*
%TO.C,R9*%
X41275000Y-130587500D03*
X41275000Y-132412500D03*
%TD*%
D14*
%TO.C,D17*%
X119525000Y-137850000D03*
X119525000Y-135350000D03*
%TD*%
%TO.C,D18*%
X119550000Y-118800000D03*
X119550000Y-116300000D03*
%TD*%
%TO.C,D13*%
X81400000Y-80700000D03*
X81400000Y-78200000D03*
%TD*%
%TO.C,D15*%
X100500000Y-105800000D03*
X100500000Y-103300000D03*
%TD*%
D33*
%TO.C,C14*%
X24170000Y-96752500D03*
X24170000Y-95027500D03*
%TD*%
D15*
%TO.C,C5*%
X35650000Y-109325000D03*
X37200000Y-109325000D03*
%TD*%
D20*
%TO.C,Sw4*%
X51900000Y-133050000D03*
D19*
X46820000Y-133050000D03*
X56980000Y-133050000D03*
D21*
X49360000Y-127970000D03*
X48090000Y-130510000D03*
X54440000Y-127970000D03*
X55710000Y-130510000D03*
%TD*%
D22*
%TO.C,R4*%
X17350000Y-104450000D03*
X17350000Y-106100000D03*
%TD*%
D34*
%TO.C,Y1*%
X33825000Y-112875000D03*
X36025000Y-112875000D03*
X36025000Y-111175000D03*
X33825000Y-111175000D03*
%TD*%
D19*
%TO.C,Sw13*%
X103970000Y-125050000D03*
D20*
X109050000Y-125050000D03*
D19*
X114130000Y-125050000D03*
D21*
X106510000Y-119970000D03*
X105240000Y-122510000D03*
X112860000Y-122510000D03*
X111590000Y-119970000D03*
%TD*%
D26*
%TO.C,*%
X29210000Y-137000000D03*
%TD*%
D14*
%TO.C,D22*%
X140913800Y-91490800D03*
X143413800Y-91490800D03*
%TD*%
D19*
%TO.C,Sw19*%
X152230000Y-138100000D03*
X142070000Y-138100000D03*
D20*
X147150000Y-138100000D03*
D21*
X143340000Y-135560000D03*
X144610000Y-133020000D03*
X149690000Y-133020000D03*
X150960000Y-135560000D03*
%TD*%
D33*
%TO.C,C6*%
X34275000Y-93062500D03*
X34275000Y-91337500D03*
%TD*%
D35*
%TO.C,C2*%
X54875000Y-79900000D03*
X54875000Y-78350000D03*
%TD*%
D32*
%TO.C,C12*%
X33612500Y-107700000D03*
X35337500Y-107700000D03*
%TD*%
D28*
%TO.C,C11*%
X41450000Y-102512500D03*
X41450000Y-104237500D03*
%TD*%
D20*
%TO.C,Sw15*%
X109050000Y-86950000D03*
D19*
X103970000Y-86950000D03*
X114130000Y-86950000D03*
D21*
X105240000Y-84410000D03*
X106510000Y-81870000D03*
X111590000Y-81870000D03*
X112860000Y-84410000D03*
%TD*%
D27*
%TO.C,J5*%
X20320000Y-124920000D03*
X20320000Y-127460000D03*
X20320000Y-130000000D03*
X20320000Y-132540000D03*
X20320000Y-135080000D03*
%TD*%
D26*
%TO.C,*%
X61425000Y-98475000D03*
%TD*%
D14*
%TO.C,D20*%
X141650400Y-129514600D03*
X144150400Y-129514600D03*
%TD*%
D36*
%TO.C,U2*%
X17320000Y-101675000D03*
X18590000Y-101675000D03*
X19860000Y-101675000D03*
X21130000Y-101675000D03*
X21130000Y-94475000D03*
X19860000Y-94475000D03*
X18590000Y-94475000D03*
X17320000Y-94475000D03*
%TD*%
D32*
%TO.C,C15*%
X35987500Y-95575000D03*
X37712500Y-95575000D03*
%TD*%
D26*
%TO.C,*%
X137625000Y-128575000D03*
%TD*%
D37*
%TO.C,U1*%
X46175000Y-79075000D03*
D38*
X52475000Y-81375000D03*
D37*
X46175000Y-81375000D03*
X46175000Y-83675000D03*
%TD*%
D39*
%TO.C,J2*%
X21100000Y-85600000D03*
X21100000Y-78600000D03*
D40*
X24350000Y-83200000D03*
X24350000Y-80200000D03*
X17850000Y-88300000D03*
X24350000Y-87200000D03*
%TD*%
D19*
%TO.C,Sw10*%
X84920000Y-119050000D03*
D20*
X90000000Y-119050000D03*
D19*
X95080000Y-119050000D03*
D21*
X87460000Y-113970000D03*
X86190000Y-116510000D03*
X92540000Y-113970000D03*
X93810000Y-116510000D03*
%TD*%
D19*
%TO.C,Sw5*%
X56980000Y-114000000D03*
D20*
X51900000Y-114000000D03*
D19*
X46820000Y-114000000D03*
D21*
X48090000Y-111460000D03*
X49360000Y-108920000D03*
X54440000Y-108920000D03*
X55710000Y-111460000D03*
%TD*%
D14*
%TO.C,D6*%
X43450000Y-113875000D03*
X43450000Y-111375000D03*
%TD*%
D26*
%TO.C,*%
X118575000Y-128575000D03*
%TD*%
D19*
%TO.C,Sw18*%
X133180000Y-100000000D03*
X123020000Y-100000000D03*
D20*
X128100000Y-100000000D03*
D21*
X124290000Y-97460000D03*
X125560000Y-94920000D03*
X130640000Y-94920000D03*
X131910000Y-97460000D03*
%TD*%
D14*
%TO.C,D5*%
X43300000Y-132775000D03*
X43300000Y-130275000D03*
%TD*%
D33*
%TO.C,C9*%
X29775000Y-93062500D03*
X29775000Y-91337500D03*
%TD*%
D41*
%TO.C,J1*%
X30035000Y-82590000D03*
X35815000Y-82590000D03*
D42*
X36175000Y-84035000D03*
X35375000Y-84035000D03*
D43*
X34175000Y-84035000D03*
X33175000Y-84035000D03*
X32675000Y-84035000D03*
X31675000Y-84035000D03*
D42*
X30475000Y-84035000D03*
X29675000Y-84035000D03*
X29675000Y-84035000D03*
X30475000Y-84035000D03*
D43*
X31175000Y-84035000D03*
X32175000Y-84035000D03*
X33675000Y-84035000D03*
X34675000Y-84035000D03*
D42*
X35375000Y-84035000D03*
X36175000Y-84035000D03*
D44*
X37245000Y-78940000D03*
X28605000Y-78940000D03*
D45*
X28605000Y-83120000D03*
X37245000Y-83120000D03*
%TD*%
D14*
%TO.C,D19*%
X119600000Y-99750000D03*
X119600000Y-97250000D03*
%TD*%
%TO.C,D7*%
X43250000Y-94675000D03*
X43250000Y-92175000D03*
%TD*%
D35*
%TO.C,C1*%
X43750000Y-82550000D03*
X43750000Y-81000000D03*
%TD*%
D20*
%TO.C,Sw16*%
X128100000Y-138100000D03*
D19*
X133180000Y-138100000D03*
X123020000Y-138100000D03*
D21*
X124290000Y-135560000D03*
X125560000Y-133020000D03*
X131910000Y-135560000D03*
X130640000Y-133020000D03*
%TD*%
D32*
%TO.C,C10*%
X35975000Y-97075000D03*
X37700000Y-97075000D03*
%TD*%
%TO.C,C8*%
X33612500Y-106175000D03*
X35337500Y-106175000D03*
%TD*%
D26*
%TO.C,*%
X118590000Y-90475000D03*
%TD*%
D39*
%TO.C,J3*%
X21100000Y-85600000D03*
X21100000Y-78600000D03*
%TD*%
M02*
