%TF.GenerationSoftware,KiCad,Pcbnew,(6.0.4)*%
%TF.CreationDate,2022-05-02T18:01:09+08:00*%
%TF.ProjectId,RP2040 Board V1.0,52503230-3430-4204-926f-617264205631,rev?*%
%TF.SameCoordinates,Original*%
%TF.FileFunction,Profile,NP*%
%FSLAX46Y46*%
G04 Gerber Fmt 4.6, Leading zero omitted, Abs format (unit mm)*
G04 Created by KiCad (PCBNEW (6.0.4)) date 2022-05-02 18:01:09*
%MOMM*%
%LPD*%
G01*
G04 APERTURE LIST*
%TA.AperFunction,Profile*%
%ADD10C,0.100000*%
%TD*%
G04 APERTURE END LIST*
D10*
X78500000Y-69000000D02*
X102000000Y-69000000D01*
X136600000Y-140500000D02*
X136600000Y-148000000D01*
X138600000Y-89000000D02*
X139600000Y-88000000D01*
X136600000Y-89000000D02*
X136600000Y-98000000D01*
X74000000Y-77000000D02*
X78500000Y-69000000D01*
X16000000Y-167000000D02*
X81000000Y-167000000D01*
X138600000Y-102000000D02*
G75*
G03*
X136600000Y-102000000I-1000000J0D01*
G01*
X138600000Y-121500000D02*
G75*
G03*
X136600000Y-121500000I-1000000J0D01*
G01*
X136600000Y-102000000D02*
X136600000Y-117500000D01*
X158000000Y-149000000D02*
X159000000Y-148000000D01*
X138600000Y-121500000D02*
X138600000Y-136500000D01*
X138600000Y-98000000D02*
X138600000Y-89000000D01*
X159000000Y-148000000D02*
X159000000Y-89000000D01*
X135600000Y-88000000D02*
X136600000Y-89000000D01*
X139600000Y-88000000D02*
X158000000Y-88000000D01*
X138600000Y-140500000D02*
G75*
G03*
X136600000Y-140500000I-1000000J0D01*
G01*
X136600000Y-121500000D02*
X136600000Y-136500000D01*
X138600000Y-102000000D02*
X138600000Y-117500000D01*
X139600000Y-149000000D02*
X138600000Y-148000000D01*
X139600000Y-149000000D02*
X158000000Y-149000000D01*
X136600000Y-136500000D02*
G75*
G03*
X138600000Y-136500000I1000000J0D01*
G01*
X74000000Y-77000000D02*
X16000000Y-77000000D01*
X135600000Y-149000000D02*
X136600000Y-148000000D01*
X127500000Y-88000000D02*
X120000000Y-75000000D01*
X81000000Y-167000000D02*
X91400000Y-149000000D01*
X138600000Y-140500000D02*
X138600000Y-148000000D01*
X105500000Y-75000000D02*
X120000000Y-75000000D01*
X15000000Y-166000000D02*
X15000000Y-78000000D01*
X136600000Y-98000000D02*
G75*
G03*
X138600000Y-98000000I1000000J0D01*
G01*
X91400000Y-149000000D02*
X135600000Y-149000000D01*
X127500000Y-88000000D02*
X135600000Y-88000000D01*
X105500000Y-75000000D02*
X102000000Y-69000000D01*
X16000000Y-167000000D02*
X15000000Y-166000000D01*
X15000000Y-78000000D02*
X16000000Y-77000000D01*
X159000000Y-89000000D02*
X158000000Y-88000000D01*
X136600000Y-117500000D02*
G75*
G03*
X138600000Y-117500000I1000000J0D01*
G01*
M02*
